<svg xmlns="http://www.w3.org/2000/svg" xmlns:xlink="http://www.w3.org/1999/xlink" viewBox="0 0 702.78 377.12"><defs><style>.cls-1{fill:#fff;}.cls-2{fill:url(#linear-gradient);}.cls-3{fill:url(#linear-gradient-2);}.cls-4{fill:url(#linear-gradient-3);}.cls-5{fill:url(#linear-gradient-4);}.cls-6{fill:url(#linear-gradient-5);}.cls-7{fill:url(#linear-gradient-6);}.cls-8{fill:url(#linear-gradient-7);}.cls-9{fill:url(#linear-gradient-8);}.cls-10{fill:url(#linear-gradient-9);}.cls-11{fill:url(#Degradado_sin_nombre_3);}.cls-12{fill:url(#Degradado_sin_nombre_3-2);}.cls-13{fill:url(#linear-gradient-10);}.cls-14{fill:url(#linear-gradient-11);}.cls-15{fill:url(#linear-gradient-12);}.cls-16{fill:url(#linear-gradient-13);}.cls-17{fill:url(#linear-gradient-14);}.cls-18{fill:url(#linear-gradient-15);}.cls-19{fill:url(#linear-gradient-16);}.cls-20{fill:url(#linear-gradient-17);}.cls-21{fill:url(#linear-gradient-18);}.cls-22{fill:url(#linear-gradient-19);}.cls-23{fill:url(#linear-gradient-20);}.cls-24{fill:url(#linear-gradient-21);}.cls-25{fill:url(#linear-gradient-22);}.cls-26{fill:url(#linear-gradient-23);}</style><linearGradient id="linear-gradient" x1="24.34" y1="366.98" x2="177.16" y2="366.98" gradientUnits="userSpaceOnUse"><stop offset="0" stop-color="#7a5635"/><stop offset="0.15" stop-color="#fade67"/><stop offset="0.48" stop-color="#c1902d"/><stop offset="0.73" stop-color="#fbc667"/><stop offset="1" stop-color="#5e3d14"/></linearGradient><linearGradient id="linear-gradient-2" x1="527.85" y1="366.98" x2="675.44" y2="366.98" xlink:href="#linear-gradient"/><linearGradient id="linear-gradient-3" x1="260.34" y1="-56.96" x2="359.94" y2="-56.96" gradientTransform="translate(-2.47 114.66) rotate(5.11)" xlink:href="#linear-gradient"/><linearGradient id="linear-gradient-4" x1="-7562.99" y1="1128.23" x2="-7548.2" y2="1128.23" gradientTransform="matrix(-1, -0.03, -0.03, 1, -7277.87, -1223.24)" xlink:href="#linear-gradient"/><linearGradient id="linear-gradient-5" x1="-7565.34" y1="1123.35" x2="-7554.69" y2="1123.35" gradientTransform="matrix(-1, -0.03, -0.03, 1, -7277.87, -1223.24)" xlink:href="#linear-gradient"/><linearGradient id="linear-gradient-6" x1="133.35" y1="-43.61" x2="268.83" y2="-43.61" gradientTransform="translate(-2.47 114.66) rotate(5.11)" xlink:href="#linear-gradient"/><linearGradient id="linear-gradient-7" x1="186.47" y1="-52.89" x2="187.39" y2="-52.89" gradientTransform="translate(-2.47 114.66) rotate(5.11)" xlink:href="#linear-gradient"/><linearGradient id="linear-gradient-8" x1="187.39" y1="-51.64" x2="189.17" y2="-51.64" gradientTransform="translate(-2.47 114.66) rotate(5.11)" xlink:href="#linear-gradient"/><linearGradient id="linear-gradient-9" x1="217.24" y1="-28.59" x2="217.4" y2="-28.59" gradientTransform="translate(-2.47 114.66) rotate(5.11)" xlink:href="#linear-gradient"/><linearGradient id="Degradado_sin_nombre_3" x1="368.64" y1="78.9" x2="397.95" y2="78.9" gradientUnits="userSpaceOnUse"><stop offset="0" stop-color="#7a5635"/><stop offset="0.15" stop-color="#fade67"/><stop offset="0.48" stop-color="#c1902d"/><stop offset="0.73" stop-color="#fbc667"/><stop offset="0.98" stop-color="#5e3d14"/></linearGradient><linearGradient id="Degradado_sin_nombre_3-2" x1="273.11" y1="79.35" x2="436.65" y2="79.35" xlink:href="#Degradado_sin_nombre_3"/><linearGradient id="linear-gradient-10" x1="0.54" y1="351.79" x2="42.9" y2="351.79" xlink:href="#linear-gradient"/><linearGradient id="linear-gradient-11" x1="0.5" y1="192.92" x2="42.82" y2="192.92" xlink:href="#linear-gradient"/><linearGradient id="linear-gradient-12" x1="4" y1="307.42" x2="39.37" y2="307.42" xlink:href="#linear-gradient"/><linearGradient id="linear-gradient-13" x1="0" y1="329.86" x2="43.31" y2="329.86" xlink:href="#linear-gradient"/><linearGradient id="linear-gradient-14" x1="0.13" y1="214.88" x2="43.33" y2="214.88" xlink:href="#linear-gradient"/><linearGradient id="linear-gradient-15" x1="4.11" y1="258" x2="39.57" y2="258" xlink:href="#linear-gradient"/><linearGradient id="linear-gradient-16" x1="4.11" y1="224.3" x2="11.52" y2="224.3" xlink:href="#linear-gradient"/><linearGradient id="linear-gradient-17" x1="659.99" y1="350.45" x2="702.35" y2="350.45" xlink:href="#linear-gradient"/><linearGradient id="linear-gradient-18" x1="659.95" y1="191.58" x2="702.27" y2="191.58" xlink:href="#linear-gradient"/><linearGradient id="linear-gradient-19" x1="663.45" y1="306.08" x2="698.81" y2="306.08" xlink:href="#linear-gradient"/><linearGradient id="linear-gradient-20" x1="659.45" y1="328.52" x2="702.76" y2="328.52" xlink:href="#linear-gradient"/><linearGradient id="linear-gradient-21" x1="659.58" y1="213.54" x2="702.78" y2="213.54" xlink:href="#linear-gradient"/><linearGradient id="linear-gradient-22" x1="663.56" y1="256.66" x2="699.02" y2="256.66" xlink:href="#linear-gradient"/><linearGradient id="linear-gradient-23" x1="663.56" y1="222.96" x2="670.97" y2="222.96" xlink:href="#linear-gradient"/></defs><g id="Capa_2" data-name="Capa 2"><g id="Capa_1-2" data-name="Capa 1"><path class="cls-1" d="M189.9,366.8a6.44,6.44,0,0,1,3,1.8,4.14,4.14,0,0,1,1,2.83,6,6,0,0,1-.47,2.46,4.18,4.18,0,0,1-1.44,1.71,6.74,6.74,0,0,1-2.28,1,15.19,15.19,0,0,1-3.33.31h-8.7V376a3.88,3.88,0,0,0,.83-.3,1.08,1.08,0,0,0,.45-.45,2,2,0,0,0,.19-.74c0-.29,0-.67,0-1.12V361.17q0-.66,0-1.11a2,2,0,0,0-.19-.74,1.17,1.17,0,0,0-.45-.46,3.52,3.52,0,0,0-.84-.32v-.93H187a16.59,16.59,0,0,1,2.59.16,7.15,7.15,0,0,1,2.3.73,3.37,3.37,0,0,1,1.37,1.33,4,4,0,0,1,.5,2.05c0,2.13-1.28,3.72-3.85,4.79Zm-4.39-.74a5,5,0,0,0,2.22-.41,2.8,2.8,0,0,0,1.22-1.16,4.35,4.35,0,0,0,.42-2.09,3.37,3.37,0,0,0-.45-1.86,2.56,2.56,0,0,0-1.29-1,6.22,6.22,0,0,0-2.08-.3c-.66,0-1.3,0-1.92.08v6.72Zm-1.88,9.14c.56,0,1.2,0,1.92,0a6.28,6.28,0,0,0,2.21-.33,2.59,2.59,0,0,0,1.35-1.16,4.49,4.49,0,0,0,.48-2.26,5.35,5.35,0,0,0-.25-1.75,2.74,2.74,0,0,0-.76-1.17,3.06,3.06,0,0,0-1.22-.65,6.31,6.31,0,0,0-1.77-.21h-2Z"/><path class="cls-1" d="M225.27,370.92h-6l-.46,1.34a10.43,10.43,0,0,0-.33,1.1,5.05,5.05,0,0,0-.13,1.12,1.36,1.36,0,0,0,1.47,1.48v.94h-6V376a1.77,1.77,0,0,0,.92-.36,3.26,3.26,0,0,0,.72-.85,8.62,8.62,0,0,0,.69-1.54l5.89-15.7h3.78l4.66,15.83a10.92,10.92,0,0,0,.52,1.5,1.92,1.92,0,0,0,.55.72,2.08,2.08,0,0,0,.95.4v.94h-7.8V376a1.85,1.85,0,0,0,1.09-.41,1.18,1.18,0,0,0,.35-.91,5.09,5.09,0,0,0-.1-1c-.06-.36-.17-.81-.32-1.36Zm-5.49-1.65h5.08l-2.26-8Z"/><path class="cls-1" d="M260.52,376.9H253.1V376a3.88,3.88,0,0,0,.83-.3,1.08,1.08,0,0,0,.45-.45,2,2,0,0,0,.19-.74c0-.29,0-.67,0-1.12V361.17q0-.66,0-1.11a2,2,0,0,0-.19-.74,1.17,1.17,0,0,0-.45-.46,3.52,3.52,0,0,0-.84-.32v-.93h8.24a15.17,15.17,0,0,1,2.83.23,7.2,7.2,0,0,1,2,.72,4.17,4.17,0,0,1,1.24,1,4.58,4.58,0,0,1,.79,1.4,5.83,5.83,0,0,1,.27,1.86,5.36,5.36,0,0,1-.48,2.37,4.87,4.87,0,0,1-1.32,1.65,9.5,9.5,0,0,1-2.21,1.24v.14a4.85,4.85,0,0,1,1.73,1.21,7.78,7.78,0,0,1,1.24,1.91l.89,1.92a7.54,7.54,0,0,0,1.18,1.93,2.36,2.36,0,0,0,1.39.78v.94h-5.44a21.19,21.19,0,0,1-1.85-3.37l-1.1-2.41a7.92,7.92,0,0,0-.85-1.53A2,2,0,0,0,261,369a3,3,0,0,0-1.15-.17H259v4.55a7.1,7.1,0,0,0,.1,1.48,1.27,1.27,0,0,0,.38.68,2.62,2.62,0,0,0,1,.45ZM259,359.29v7.86h1.4a4.75,4.75,0,0,0,1.86-.31,2.85,2.85,0,0,0,1.17-.84,3,3,0,0,0,.59-1.28,7.36,7.36,0,0,0,.17-1.61,4.08,4.08,0,0,0-.91-2.88,3.51,3.51,0,0,0-2.68-1C259.78,359.26,259.25,359.27,259,359.29Z"/><path class="cls-1" d="M303.42,366.8a6.45,6.45,0,0,1,3,1.8,4.14,4.14,0,0,1,1,2.83,6,6,0,0,1-.47,2.46,4.18,4.18,0,0,1-1.44,1.71,6.74,6.74,0,0,1-2.28,1,15.19,15.19,0,0,1-3.33.31h-8.7V376a3.68,3.68,0,0,0,.83-.3,1.08,1.08,0,0,0,.45-.45,2,2,0,0,0,.19-.74c0-.29,0-.67,0-1.12V361.17q0-.66,0-1.11a2.29,2.29,0,0,0-.18-.74,1.13,1.13,0,0,0-.46-.46,3.52,3.52,0,0,0-.84-.32v-.93h9.26a16.54,16.54,0,0,1,2.58.16,7.15,7.15,0,0,1,2.3.73,3.37,3.37,0,0,1,1.37,1.33,4,4,0,0,1,.5,2.05c0,2.13-1.28,3.72-3.84,4.79Zm-4.4-.74a5,5,0,0,0,2.22-.41,2.8,2.8,0,0,0,1.22-1.16,4.35,4.35,0,0,0,.42-2.09,3.37,3.37,0,0,0-.45-1.86,2.52,2.52,0,0,0-1.29-1,6.18,6.18,0,0,0-2.08-.3c-.65,0-1.3,0-1.92.08v6.72Zm-1.88,9.14c.56,0,1.2,0,1.92,0a6.34,6.34,0,0,0,2.22-.33,2.67,2.67,0,0,0,1.35-1.16,4.6,4.6,0,0,0,.48-2.26,5.33,5.33,0,0,0-.26-1.75,2.74,2.74,0,0,0-.76-1.17,3.06,3.06,0,0,0-1.22-.65,6.28,6.28,0,0,0-1.76-.21h-2Z"/><path class="cls-1" d="M343.12,357.61v4.49h-1.93a8.85,8.85,0,0,0-.79-1.81,2.52,2.52,0,0,0-.78-.75,3.18,3.18,0,0,0-1.54-.28H335v6.79h1.86a2.2,2.2,0,0,0,1-.18,1.45,1.45,0,0,0,.59-.59,5.31,5.31,0,0,0,.44-1.27h1.6v5.74h-1.6a5,5,0,0,0-.44-1.25,1.57,1.57,0,0,0-.57-.62,2.15,2.15,0,0,0-1-.18H335v7.54h3.07a5,5,0,0,0,.83-.06,1.92,1.92,0,0,0,.61-.22,2,2,0,0,0,.51-.42,3.54,3.54,0,0,0,.44-.58,5.73,5.73,0,0,0,.4-.82,14,14,0,0,0,.47-1.4h1.93L343,376.9H329.11V376a3.58,3.58,0,0,0,.82-.3,1.05,1.05,0,0,0,.46-.45,2,2,0,0,0,.19-.74c0-.29,0-.67,0-1.12V361.17q0-.66,0-1.11a2,2,0,0,0-.19-.74,1.17,1.17,0,0,0-.45-.46,3.52,3.52,0,0,0-.84-.32v-.93Z"/><path class="cls-1" d="M372.25,376.9h-7.42V376a3.68,3.68,0,0,0,.83-.3,1.08,1.08,0,0,0,.45-.45,2,2,0,0,0,.19-.74c0-.29,0-.67,0-1.12V361.17q0-.66,0-1.11a2,2,0,0,0-.19-.74,1.17,1.17,0,0,0-.45-.46,3.52,3.52,0,0,0-.84-.32v-.93h8.24a15.17,15.17,0,0,1,2.83.23,7.2,7.2,0,0,1,2,.72,4,4,0,0,1,1.24,1A4.38,4.38,0,0,1,380,361a5.83,5.83,0,0,1,.27,1.86,5.36,5.36,0,0,1-.48,2.37,4.87,4.87,0,0,1-1.32,1.65,9.29,9.29,0,0,1-2.21,1.24v.14a4.77,4.77,0,0,1,1.73,1.21,7.78,7.78,0,0,1,1.24,1.91l.89,1.92a7.54,7.54,0,0,0,1.18,1.93,2.36,2.36,0,0,0,1.39.78v.94h-5.44a22,22,0,0,1-1.85-3.37l-1.1-2.41a7.92,7.92,0,0,0-.85-1.53,2,2,0,0,0-.73-.62,3,3,0,0,0-1.15-.17h-.82v4.55a7.89,7.89,0,0,0,.1,1.48,1.27,1.27,0,0,0,.38.68,2.62,2.62,0,0,0,1.05.45Zm-1.53-17.61v7.86h1.4a4.81,4.81,0,0,0,1.87-.31,2.81,2.81,0,0,0,1.16-.84,3.09,3.09,0,0,0,.6-1.28,8.06,8.06,0,0,0,.16-1.61,4,4,0,0,0-.91-2.88,3.5,3.5,0,0,0-2.68-1C371.51,359.26,371,359.27,370.72,359.29Z"/><path class="cls-1" d="M404.47,372.14a4.83,4.83,0,0,0,1.18,2.5,3.29,3.29,0,0,0,2.42.83,3.78,3.78,0,0,0,1.5-.28,2.28,2.28,0,0,0,1.06-.91,2.88,2.88,0,0,0,.41-1.58,3.31,3.31,0,0,0-.33-1.52,3.73,3.73,0,0,0-1-1.22,11.17,11.17,0,0,0-2-1.23,20.15,20.15,0,0,1-2-1.14,7.56,7.56,0,0,1-1.52-1.31,5.84,5.84,0,0,1-1-1.56,5.51,5.51,0,0,1,.52-4.86,5.3,5.3,0,0,1,2.49-1.85,10.7,10.7,0,0,1,3.78-.62,20.45,20.45,0,0,1,2.4.13A25.9,25.9,0,0,1,415,358v4.1H413a6.23,6.23,0,0,0-.68-1.77,2.67,2.67,0,0,0-1-1,4,4,0,0,0-3,0,2.29,2.29,0,0,0-1,.84,2.35,2.35,0,0,0-.37,1.35,3,3,0,0,0,.32,1.42,3.66,3.66,0,0,0,1.06,1.17,14.54,14.54,0,0,0,2.18,1.31,13.74,13.74,0,0,1,2.73,1.77,5.79,5.79,0,0,1,1.14,7.29,5.18,5.18,0,0,1-2.34,2,8.83,8.83,0,0,1-3.56.68,28.69,28.69,0,0,1-3-.16,27.21,27.21,0,0,1-2.93-.47v-4.35Z"/><path class="cls-1" d="M453.22,373.35a8.05,8.05,0,0,0,.09,1.49,1.27,1.27,0,0,0,.37.67,2.37,2.37,0,0,0,1,.45v.94h-7.37V376a3,3,0,0,0,1.06-.42,1.17,1.17,0,0,0,.34-.6,8.47,8.47,0,0,0,.1-1.59v-5.66h-6.39v5.66c0,.33,0,.64,0,.92a3.56,3.56,0,0,0,.11.69,1.22,1.22,0,0,0,.25.45,1.35,1.35,0,0,0,.44.32,3.19,3.19,0,0,0,.7.23v.94h-7.42V376a3.88,3.88,0,0,0,.83-.3,1.08,1.08,0,0,0,.45-.45,2,2,0,0,0,.19-.74c0-.29,0-.67,0-1.12V361.17q0-.66,0-1.11a2,2,0,0,0-.19-.74,1.17,1.17,0,0,0-.45-.46,3.52,3.52,0,0,0-.84-.32v-.93H444v.93a2.84,2.84,0,0,0-1,.47,1.44,1.44,0,0,0-.39.67,7.11,7.11,0,0,0-.11,1.51v4.72h6.39v-4.72a8.13,8.13,0,0,0-.09-1.49,1.36,1.36,0,0,0-.37-.68,2.65,2.65,0,0,0-1-.48v-.93h7.37v.93a3.75,3.75,0,0,0-.9.36,1.05,1.05,0,0,0-.4.49,2.27,2.27,0,0,0-.16.67c0,.24,0,.62,0,1.13Z"/><path class="cls-1" d="M484.91,377.12q-4.16,0-6.24-2.43c-1.38-1.62-2.08-4-2.08-7.27a13.34,13.34,0,0,1,1-5.44,7.34,7.34,0,0,1,3-3.42,9,9,0,0,1,4.68-1.17c2.82,0,4.93.8,6.34,2.42s2.12,4,2.12,7.2a15,15,0,0,1-.62,4.58,8.31,8.31,0,0,1-1.79,3.15,7,7,0,0,1-2.78,1.8A10.56,10.56,0,0,1,484.91,377.12ZM481.08,367a14.93,14.93,0,0,0,1,6.35,3.3,3.3,0,0,0,3.13,2.08,3,3,0,0,0,1.85-.59,4,4,0,0,0,1.23-1.64,8.84,8.84,0,0,0,.68-2.49,21.94,21.94,0,0,0,.21-3.16,20.75,20.75,0,0,0-.45-4.71,6.15,6.15,0,0,0-1.34-2.87,3,3,0,0,0-2.3-1,3.22,3.22,0,0,0-3,2A13.94,13.94,0,0,0,481.08,367Z"/><path class="cls-1" d="M521.47,373.36a8.17,8.17,0,0,0,.07,1.33,1.67,1.67,0,0,0,.23.62,1.42,1.42,0,0,0,.47.39,3.44,3.44,0,0,0,.94.26v.94h-7.6V376a3.58,3.58,0,0,0,.82-.3,1.05,1.05,0,0,0,.46-.45,2.27,2.27,0,0,0,.19-.74c0-.29,0-.67,0-1.12V361.17c0-.44,0-.81,0-1.11a1.87,1.87,0,0,0-.18-.74,1.17,1.17,0,0,0-.45-.46,3.7,3.7,0,0,0-.84-.32v-.93h8.21a9.2,9.2,0,0,1,5.35,1.28,4.51,4.51,0,0,1,1.78,3.94,6.24,6.24,0,0,1-.83,3.26,5.31,5.31,0,0,1-2.42,2.1,9.69,9.69,0,0,1-3.95.71q-1.38,0-2.25-.06Zm0-6.11h1.21a5.2,5.2,0,0,0,2.25-.41,2.52,2.52,0,0,0,1.24-1.27,5.9,5.9,0,0,0,.4-2.36,5.79,5.79,0,0,0-.4-2.34,2.51,2.51,0,0,0-1.18-1.24,4.79,4.79,0,0,0-2-.37c-.65,0-1.16,0-1.52,0Z"/><rect class="cls-2" x="47.29" y="365.47" width="109.21" height="3.03"/><rect class="cls-3" x="550.01" y="365.47" width="105.48" height="3.03"/><path class="cls-4" d="M364.11,39.41A20.93,20.93,0,0,0,349.39,29L318.31,59.92,315.23,63l-1.7,1.67-9.7,9.65L298,80.13,293.09,85a23.85,23.85,0,0,0,3.45,7.56c.51.81.93,1.52,1.27,2.15,1.25,2.4,1.28,3.82-.09,5.85a24.71,24.71,0,0,1-2,2.49,134,134,0,0,1-11.57,11.42c-4.39,3.87-9,7.53-13.64,11.06-2,1.54-4.06,3-6.14,4.54-2.4,1.72-4.84,3.45-7.31,5.26l5.38,3.67c1.32-.76,2.67-1.49,4-2.3s2.34-1.46,3.47-2.23a120.82,120.82,0,0,0,17-13.93c2.72-2.62,5.35-5.34,7.92-8.13.94-1,1.88-2.08,2.77-3.13,1.56-1.76,3.05-3.56,4.5-5.37a14.66,14.66,0,0,0,1.47-3.36c1,.67.82,1.81.16,2.87a23.1,23.1,0,0,1-2.27,3.17c-1.29,1.45-2.57,2.91-3.87,4.34-3.3,3.64-6.67,7.19-10.19,10.58a130.16,130.16,0,0,1-16.68,13.87q-2.94,2.06-6.06,3.91a13.25,13.25,0,0,0-1.33,1l1,1.09c1.67-1.05,3-1.95,4.43-2.83,1-.61,1.91-1.24,2.84-1.88a135.25,135.25,0,0,0,16.67-13.45q4.77-4.49,9.23-9.3,2.7-2.85,5.28-5.79c1-1.06,1.88-2.13,2.83-3.21q6.24-7,12.67-13.77t13.13-13.57c10.3-10.42,21-20.42,31.6-30.52C365.44,44.66,366.17,42.88,364.11,39.41Zm-1.71,6.48c-7.78,7.51-15.62,15-23.43,22.52-6.24,6-12.52,11.94-18.76,17.93-.65.63-1.29,1.24-1.93,1.88-2.78,2.69-5.52,5.43-8.26,8.15-1.62,1.58-3.43,2.47-5.66,1.66a.84.84,0,0,0-.22-.1,13.65,13.65,0,0,1-6.31-5.58,24.75,24.75,0,0,1-1.71-3l1.72,1.76a30.41,30.41,0,0,0,3,2.88,13.68,13.68,0,0,0,3.23,2.08c2.88,1.22,4.49-.24,6.55-2.52.24-.25.47-.49.73-.73l6.88-6.73,9.14-8.92c5.11-5,10.2-9.93,15.34-14.87C348.8,56.43,355,50.78,361.13,45c2-1.89,2.15-2.81,1-5.28-.37-.79-.75-1.59-1.13-2.37l.54-.27c.66,1.09,1.42,2.14,2,3.25C364.65,42.85,364.41,44,362.4,45.89Z"/><path class="cls-1" d="M208.68,100.05l.33.32.05-.06Z"/><path class="cls-1" d="M194.94,85.78l-1.26-1.39c-.68-.75-1.33-1.45-1.92-2.11,1.48,1.69,2.86,3.21,4.07,4.47C195.54,86.42,195.24,86.11,194.94,85.78Z"/><path class="cls-5" d="M230.75,168.66c.61-2.47,1.24-5,1.9-7.75l-1-.1c1.39-6.33,6.21-9.5,11.66-12.46l-2.94-1.78c-5.79,3.51-10.53,7.79-12,14.67a21.7,21.7,0,0,0-.37,5.16C228.08,167.74,228.57,169,230.75,168.66Z"/><path class="cls-6" d="M245.67,149.58c-.51-.07-1.14-.37-1.53-.18-3.6,1.71-7.12,3.57-9.35,7.1C237.79,153.28,241.85,151.79,245.67,149.58Z"/><path class="cls-7" d="M260.31,139.52c-4.28-2.83-8.42-5.87-12.45-9l-2.6-2.06c-6.92-5.51-13.56-11.37-20.16-17.27-.39-.34-.77-.7-1.15-1l-.29-.27c-.47-.41-1-.95-1.74-1.59-6.09-5.76-19.9-19.57-21.78-21.43a.83.83,0,0,0-.21-.2v0l-2.31-2.55c-5.06-5.57-9.89-11.35-14.63-17.2-9-11.21-17.54-22.79-26.39-34.15a28.85,28.85,0,0,0-5.34-5.25,7.45,7.45,0,0,0-9.21,0,7.12,7.12,0,0,0-2.94,8.45,30,30,0,0,0,2.75,6.41,211.24,211.24,0,0,0,18.86,27.1c9.13,11.42,18.74,22.45,28.91,33l.12.14c16.69,18.32,37.8,33.31,40.36,35.11l.13.08.12.1h0a154.68,154.68,0,0,0,13.81,9,98.39,98.39,0,0,0,10.3,4.94,10.86,10.86,0,0,0,3.2.76c.37,0,.73.05,1.09.07a5.94,5.94,0,0,0,2.76-.58,5.58,5.58,0,0,0,3-4.88A8.42,8.42,0,0,0,260.31,139.52ZM146.08,36a2.16,2.16,0,0,1,.28-4.3,2.27,2.27,0,0,1,2,2.29A2.21,2.21,0,0,1,146.08,36ZM253.82,144.32a2.28,2.28,0,0,1-1.9.93,2.18,2.18,0,0,1-2-2.28,2.22,2.22,0,0,1,2.29-2,2.27,2.27,0,0,1,2,2.28A2.25,2.25,0,0,1,253.82,144.32Zm.4-6.49c-2.82-1.92-5.61-3.85-8.38-5.86-.14-.1-.28-.18-.42-.29s0,0,0,0c-.76-.54-1.51-1.1-2.26-1.65s-1.79-1.33-2.68-2c-6.33-4.76-12.5-9.77-18.45-15-4.41-4.08-8.84-8.39-13-12.57a2.5,2.5,0,0,0-.33-.32c-5.45-5.51-10.43-10.76-14.26-14.87l.52.59.9,1c-1.23-1.26-2.61-2.78-4.08-4.47l0,0c-9-10.17-21.56-26.16-22.89-27.87l-.13-.15c-4.46-6.14-8.56-12.51-12.81-18.82-1-1.45-2-2.87-3.07-4.21a10,10,0,0,0-7.06-3.8,6.18,6.18,0,0,1,.23-.73,20.52,20.52,0,0,1,3.31.71,12.81,12.81,0,0,1,5.61,4.85c3.67,5.17,7.22,10.41,11,15.52C174.7,59.81,184.06,71.47,194,82.6c1.53,1.72,3.06,3.41,4.62,5.1l.18.18c.74.76,1.54,1.6,2.4,2.5,2,2.07,4.38,4.46,6.9,7h0c2.62,2.59,5.43,5.36,8.34,8.11a.62.62,0,0,0,.14.14,0,0,0,0,0,0,0c4.89,4.66,10,9.31,14.75,13.13q6.27,5.42,12.77,10.49c.87.69,1.74,1.36,2.62,2,3.42,2.61,6.9,5.13,10.48,7.55a40.49,40.49,0,0,1,4.06,3.23,4.73,4.73,0,0,1,1.84,3.79C261.15,142.06,257.55,140.11,254.22,137.83Z"/><path class="cls-8" d="M188,78.18c.27.31.55.61.84.93Q188.38,78.6,188,78.18Z"/><path class="cls-9" d="M190.48,80.9c-.62-.67-1.16-1.27-1.62-1.79C189.4,79.69,189.94,80.29,190.48,80.9Z"/><path class="cls-10" d="M216.61,105.63l-.07-.06-.08-.09S216.56,105.59,216.61,105.63Z"/><path class="cls-1" d="M398,45.84q-6.45,14.71-6.45,33.94,0,15.81,4.23,27.94l-.56,1.09a47.9,47.9,0,0,1-15.87,17.68q-10.65-17.38-10.66-42.42,0-31.3,16.65-52.76a33.76,33.76,0,0,1,8.9,8A28.61,28.61,0,0,1,398,45.84Z"/><path class="cls-1" d="M428.6,33.19a53.39,53.39,0,0,0-9.41-13,46.78,46.78,0,0,0-11.52-8.52c-.54-.29-1.08-.58-1.64-.85q-14.53-7-38.88-7l-47.82.66q-25,0-46.22-1.18V9.6q19.41,4.19,21.23,5.25c2.06,1,3.11,3.3,3.11,6.87l-.11,3.63.57,40.54,8.46-8.43,1.74-1.72,10.3-10.25q.16-15.9.48-29.88Q336.8,14,350,14q21.87,0,33.44,4.88a50,50,0,0,1,8.72,4.69A44.62,44.62,0,0,1,402.22,33a24.4,24.4,0,0,1,1.64,2.27,51.05,51.05,0,0,1,6.25,14.4,85.26,85.26,0,0,1,2.94,23.11q0,24.22-8.85,40.85a54.87,54.87,0,0,1-3.2,5.33,57,57,0,0,1-15.68,15.82,60.9,60.9,0,0,1-7,4.16q-11.9,5.91-30.23,5.9a245.11,245.11,0,0,1-29.18-2.14q-.4-15.94-.54-36.77c-1.75,1.92-3.47,3.81-5.16,5.71l-2.71,3.06c-4.59,5.21-8.93,9.78-13.23,13.92q-.22,10.86-.66,12.69a4.59,4.59,0,0,1-1.18,2.35,7.16,7.16,0,0,1-2.85,1.51c-1.26.4-7.25,1.64-18,3.67l-1.45.28v6.33q19.29-1.26,29.71-1.28,3,0,20.15.59t19.64.59q30.12,0,51.66-12a82.19,82.19,0,0,0,16.85-12.44,80.58,80.58,0,0,0,19.15-27.72,89.22,89.22,0,0,0,6.38-34.26Q436.65,48.52,428.6,33.19Z"/><path class="cls-1" d="M391.5,79.78q0,15.81,4.23,27.94l-.56,1.09a47.9,47.9,0,0,1-15.87,17.68q-10.65-17.38-10.66-42.42,0-31.3,16.65-52.76a33.76,33.76,0,0,1,8.9,8A28.61,28.61,0,0,1,398,45.84Q391.5,60.55,391.5,79.78Z"/><path class="cls-11" d="M398,45.84q-6.45,14.71-6.45,33.94,0,15.81,4.23,27.94l-.56,1.09a47.9,47.9,0,0,1-15.87,17.68q-10.65-17.38-10.66-42.42,0-31.3,16.65-52.76a33.76,33.76,0,0,1,8.9,8A28.61,28.61,0,0,1,398,45.84Z"/><path class="cls-12" d="M428.6,33.19a53.39,53.39,0,0,0-9.41-13,46.78,46.78,0,0,0-11.52-8.52c-.54-.29-1.08-.58-1.64-.85q-14.53-7-38.88-7l-47.82.66q-25,0-46.22-1.18V9.6q19.41,4.19,21.23,5.25c2.06,1,3.11,3.3,3.11,6.87l-.11,3.63.57,40.54,8.46-8.43,1.74-1.72,10.3-10.25q.16-15.9.48-29.88Q336.8,14,350,14q21.87,0,33.44,4.88a50,50,0,0,1,8.72,4.69A44.62,44.62,0,0,1,402.22,33a24.4,24.4,0,0,1,1.64,2.27,51.05,51.05,0,0,1,6.25,14.4,85.26,85.26,0,0,1,2.94,23.11q0,24.22-8.85,40.85a54.87,54.87,0,0,1-3.2,5.33,57,57,0,0,1-15.68,15.82,60.9,60.9,0,0,1-7,4.16q-11.9,5.91-30.23,5.9a245.11,245.11,0,0,1-29.18-2.14q-.4-15.94-.54-36.77c-1.75,1.92-3.47,3.81-5.16,5.71l-2.71,3.06c-4.59,5.21-8.93,9.78-13.23,13.92q-.22,10.86-.66,12.69a4.59,4.59,0,0,1-1.18,2.35,7.16,7.16,0,0,1-2.85,1.51c-1.26.4-7.25,1.64-18,3.67l-1.45.28v6.33q19.29-1.26,29.71-1.28,3,0,20.15.59t19.64.59q30.12,0,51.66-12a82.19,82.19,0,0,0,16.85-12.44,80.58,80.58,0,0,0,19.15-27.72,89.22,89.22,0,0,0,6.38-34.26Q436.65,48.52,428.6,33.19Z"/><path class="cls-11" d="M391.5,79.78q0,15.81,4.23,27.94l-.56,1.09a47.9,47.9,0,0,1-15.87,17.68q-10.65-17.38-10.66-42.42,0-31.3,16.65-52.76a33.76,33.76,0,0,1,8.9,8A28.61,28.61,0,0,1,398,45.84Q391.5,60.55,391.5,79.78Z"/><path class="cls-1" d="M511.05,17.16c0-2.36,0-5.5.11-9.44q-34.64-6.31-36.67-6.54A144.85,144.85,0,0,0,455.61,0q-20.64,0-37,6.38a57.45,57.45,0,0,1,10.06,9,67.07,67.07,0,0,1,24.46-4.21A77.42,77.42,0,0,1,481,16.08q9.77,3.66,14.1,9.44t9.27,24.13h8.05Q511.05,31.53,511.05,17.16Z"/><path class="cls-1" d="M391.5,79.78q0,15.81,4.23,27.94l-.56,1.09a47.9,47.9,0,0,1-15.87,17.68q-10.65-17.38-10.66-42.42,0-31.3,16.65-52.76a33.76,33.76,0,0,1,8.9,8A28.61,28.61,0,0,1,398,45.84Q391.5,60.55,391.5,79.78Z"/><path class="cls-1" d="M509.23,77.75,472.56,77v5.89l4.18,1q12.12,2.48,14.58,4a5.67,5.67,0,0,1,2.58,3.32q.64,2.14.64,14.26,0,22.41-.43,34-19.62,7.5-37.42,7.5-21.42,0-37.25-9.84-.6.62-1.23,1.2a90.5,90.5,0,0,1-14.29,11.2q17.52,9.14,43,9.13A181.83,181.83,0,0,0,469,157.32q5.36-.65,25.73-5.15,15.56-3.54,20.28-4.29-.87-19.84-.86-31.42,0-19.3.86-24.13a6.85,6.85,0,0,1,1.6-3.59,7.74,7.74,0,0,1,3.76-1.88l16.4-4V77Q521.36,77.73,509.23,77.75Z"/><path class="cls-1" d="M391.5,79.78q0,15.81,4.23,27.94l-.56,1.09a47.9,47.9,0,0,1-15.87,17.68q-10.65-17.38-10.66-42.42,0-31.3,16.65-52.76a33.76,33.76,0,0,1,8.9,8A28.61,28.61,0,0,1,398,45.84Q391.5,60.55,391.5,79.78Z"/><path class="cls-1" d="M74.32,209.48h48l4,9.53v106.7l-4,9.53h-48l4-9.53V219Zm18,14v97.78h20V223.47Z"/><path class="cls-1" d="M131.72,335.24l4-9.53V233l-4-9.53h45.2v18l-9.53-4H149.71v20.91h14.91l9.53-4v22l-9.53-4H149.71v48.89h17.68l9.53-4-4,18Z"/><path class="cls-1" d="M200.35,233v88.25H218l9.53-4-4,18h-41.2l4-9.53V233l-4-9.53h22Z"/><path class="cls-1" d="M231.23,335.24l5.84-9.53L255.21,233l-2-9.53h21.83l-2,9.53,18.14,92.71,5.84,9.53h-22l2.15-9.53-4.92-25.37H256l-4.92,25.37,2.16,9.53Zm38.28-48.89L264.13,259l-5.38,27.36Z"/><path class="cls-1" d="M342.32,223.47v18l-9.53-4H315.11v83.79h17.22V295.88l-3.85-9.53h17.83v39.36l-4,9.53H305.11l-4-9.53V233l4-9.53Z"/><path class="cls-1" d="M368.31,233v25.37h20V233l-4-9.53h22l-4,9.53v92.71l4,9.53h-22l4-9.53V272.36h-20v53.35l4,9.53h-22l4-9.53V233l-4-9.53h22Z"/><path class="cls-1" d="M411.8,335.24l4-9.53V233l-4-9.53H457v18l-9.53-4H429.79v20.91H444.7l9.53-4v22l-9.53-4H429.79v48.89h17.68l9.53-4-4,18Z"/><path class="cls-1" d="M495.34,325.71l4,9.53h-22l4-9.53V237.46H472l-9.53,4v-18h52v18l-9.69-4h-9.37Z"/><path class="cls-1" d="M552.74,325.71l4,9.53h-22l4-9.53V237.46h-9.38l-9.53,4v-18h52v18l-9.68-4h-9.38Z"/><path class="cls-1" d="M581.24,335.24l-4-9.53V219l4-9.53h40l4,9.53v106.7l-4,9.53Zm10-111.77v97.78h20V223.47Z"/><text/><path class="cls-13" d="M3.22,336.27H39.88c5.13,6.83,3.56,18.11-3.42,25a21,21,0,0,1-27.62,1.72A20.67,20.67,0,0,1,3.22,336.27Z"/><path class="cls-14" d="M35.18,182.32a21.06,21.06,0,0,0-27.7.58c-7.32,6.54-9.18,17.87-4.13,25.54H40.14A20.61,20.61,0,0,0,35.18,182.32Z"/><path class="cls-15" d="M19.57,319.42c.86-.62,1.69-1.29,2.55-1.92l17.25-12.45V291.14L4,317.18v5.92C13,324.21,13,324.21,19.57,319.42Z"/><path class="cls-16" d="M35.39,333.09c1.54,0,3.08.05,4.61,0,2.09-.11,3.36-1.23,3.31-3.36s-1.31-2.94-3.24-3c-.71,0-1.42,0-2.13,0H5.29a17.05,17.05,0,0,0-2.48.06A3,3,0,0,0,0,329.8,3.06,3.06,0,0,0,2.74,333a13.66,13.66,0,0,0,2.48.09H35.39Z"/><path class="cls-1" d="M32.17,322.84l.28.85,6.8-.37a11.73,11.73,0,0,0,.3-1.59c0-1.06,0-2.11,0-4Z"/><path class="cls-17" d="M40.7,211.72a10.58,10.58,0,0,0-2.47-.19c-11,0-22,0-33,0-1,0-2.31-.09-3.07.45-1,.66-2.09,2-2,2.91C.27,216,1.47,217.21,2.5,218c.65.45,1.83.2,2.78.22H38a14.74,14.74,0,0,0,2.49-.09A3.05,3.05,0,0,0,43.33,215,3.09,3.09,0,0,0,40.7,211.72Z"/><path class="cls-18" d="M39.37,238.26,4.11,264.11v13.63l35.46-26V240.63C39.57,240.07,39.47,239.51,39.37,238.26Z"/><path class="cls-1" d="M4,290.69v13.65c12.29-9,23.92-17.51,35.38-25.92V264.79C27.27,273.63,15.65,282.14,4,290.69Z"/><path class="cls-1" d="M39.64,225.22c-11.88,8.71-23.5,17.22-35.58,26.05V237.65c7-5.14,14.16-10.4,21.33-15.61a3.83,3.83,0,0,1,2-.68c3.89-.05,7.8,0,12,0C39.44,222.7,39.52,223.83,39.64,225.22Z"/><path class="cls-19" d="M11.52,222.18l-.29-.85-6.8.37a11.73,11.73,0,0,0-.3,1.59c0,1.05,0,2.11,0,4Z"/><path class="cls-20" d="M662.66,334.93h36.67c5.13,6.83,3.56,18.11-3.42,24.95a21,21,0,0,1-27.62,1.72A20.68,20.68,0,0,1,662.66,334.93Z"/><path class="cls-21" d="M694.63,181a21.06,21.06,0,0,0-27.7.58c-7.32,6.54-9.18,17.87-4.13,25.54h36.79A20.63,20.63,0,0,0,694.63,181Z"/><path class="cls-22" d="M679,318.08c.86-.62,1.69-1.29,2.55-1.92l17.24-12.45V289.8l-35.36,26v5.92C672.46,322.87,672.46,322.87,679,318.08Z"/><path class="cls-23" d="M694.84,331.75c1.54,0,3.08.05,4.61,0,2.09-.11,3.36-1.23,3.31-3.36s-1.31-2.94-3.24-3c-.71,0-1.42,0-2.13,0q-16.32,0-32.65,0a17.23,17.23,0,0,0-2.49.06,3,3,0,0,0-2.8,3.11,3.06,3.06,0,0,0,2.74,3.2,13.62,13.62,0,0,0,2.48.09h30.17Z"/><path class="cls-1" d="M691.61,321.5l.29.85,6.8-.37a11.73,11.73,0,0,0,.3-1.59c0-1.06,0-2.11,0-4Z"/><path class="cls-24" d="M700.15,210.38a10.62,10.62,0,0,0-2.47-.19c-11,0-22,0-33,0-1,0-2.31-.09-3.08.45-.94.66-2.08,2-2,2.91.13,1.12,1.33,2.3,2.36,3.05.65.46,1.83.2,2.78.22h32.68a14.74,14.74,0,0,0,2.49-.09,3,3,0,0,0,2.87-3.06A3.08,3.08,0,0,0,700.15,210.38Z"/><path class="cls-25" d="M698.82,236.92l-35.26,25.85V276.4l35.46-26V239.29C699,238.73,698.92,238.17,698.82,236.92Z"/><path class="cls-1" d="M663.44,289.35V303c12.28-9,23.92-17.51,35.38-25.92V263.45C686.72,272.29,675.1,280.8,663.44,289.35Z"/><path class="cls-1" d="M699.09,223.88c-11.88,8.71-23.5,17.22-35.58,26.05V236.31c7-5.14,14.16-10.4,21.33-15.61a3.8,3.8,0,0,1,2-.68c3.89-.05,7.79,0,12,0C698.88,221.36,699,222.49,699.09,223.88Z"/><path class="cls-26" d="M671,220.84l-.29-.85-6.8.37a11.73,11.73,0,0,0-.3,1.59c0,1.05,0,2.11,0,4Z"/></g></g></svg>