<svg xmlns="http://www.w3.org/2000/svg" viewBox="0 0 807.26 672.88"><defs><style>.cls-1{fill:#f8ede7;}.cls-2{fill:#1e1e1c;}.cls-3{fill:#222323;}.cls-4{fill:#d80f25;}.cls-5{fill:#2c3a5f;}.cls-6{fill:#d38036;}.cls-7{fill:#fff;}.cls-8{fill:#282220;}</style></defs><g id="Capa_2" data-name="Capa 2"><g id="Capa_1-2" data-name="Capa 1"><path class="cls-1" d="M408.12,526.74l1.55.35v0l7.69,1.7c4,.89,6.21,2.39,5.38,6.15a5.48,5.48,0,0,1-3,3.73,5.36,5.36,0,0,1,1.13,4.62c-.83,3.76-3.43,4.19-7.47,3.3l-9.24-2Zm2.51,11.53-.91,4.14,3.37.75c1.93.42,2.7-.29,3-1.53s-.13-2.19-2.06-2.61Zm1.62-7.31-.92,4.14,3.38.74c1.93.43,2.7-.28,3-1.5s-.12-2.21-2.05-2.63Z"/><path class="cls-1" d="M435.24,531.7l5.36.52L446.11,551l-5.36-.52-1.1-3.74L431.7,546l-1.79,3.45-3.7-.36Zm-1.93,11.2,5.36.52-2-6.94Z"/><path class="cls-1" d="M452.68,533l8.22-.2c4.8-.12,7.88,2.3,8,6.64a6.22,6.22,0,0,1-3.24,6l3.78,5.37-5.75.14-3.12-4.45-2.6.07.11,4.52-4.94.12Zm5.2,10.3,1.66,0c2.91-.07,4.34-1.1,4.28-3.69s-1.55-3.55-4.46-3.48l-1.66,0Z"/><path class="cls-1" d="M474,532.14l1.57-.22v0l7.8-1.09c4.09-.58,6.65.06,7.18,3.87a5.48,5.48,0,0,1-1.48,4.54,5.4,5.4,0,0,1,2.67,3.93c.54,3.81-1.74,5.13-5.84,5.7l-9.37,1.32Zm5.34,2.5.59,4.2,3.43-.48c1.95-.28,2.42-1.21,2.25-2.44s-.89-2-2.84-1.76Zm1,7.42.59,4.19,3.43-.48c1.95-.27,2.43-1.21,2.25-2.47s-.89-2-2.84-1.72Z"/><path class="cls-1" d="M508.62,525.36l.81,3.15-8.72,2.23,1,4.08,6.91-1.77.8,3.15-6.9,1.77,1.05,4.1,8.72-2.23.8,3.15-13.5,3.46-4.51-17.64Z"/><path class="cls-1" d="M513.84,523.77l7.68-2.9c4.5-1.7,8.21-.43,9.74,3.63a6.21,6.21,0,0,1-1.08,6.72l5.34,3.82-5.38,2-4.42-3.17-2.43.92,1.6,4.24-4.62,1.74Zm8.3,8,1.56-.58c2.72-1,3.74-2.47,2.82-4.9s-2.63-2.85-5.36-1.82l-1.55.59Z"/><path class="cls-1" d="M559.05,523.36c-3.94,2.33-7,2.22-9.29.69l1.49-2.9a6.76,6.76,0,0,0,6.38-.45c2-1.2,2.46-2.48,2-3.19s-1-.79-2.56-.49l-5.45,1c-3.15.6-4.71-.47-5.84-2.37-1.39-2.35-.55-6.11,4.06-8.83,3.4-2,6.37-1.83,8.56-.52l-1.21,2.7c-1.94-.57-3.62-.88-5.64.31-1.81,1.07-2.21,2.55-1.85,3.15s.9.86,2.57.53l4.42-.85c3.22-.64,5.73-.27,7,1.83C565.35,516.81,564.26,520.29,559.05,523.36Z"/><path class="cls-1" d="M565.38,497.08l4.53,5.93,5.85-4.47-4.53-5.93,3.92-3,11.05,14.46-3.93,3-4.54-5.95-5.85,4.46,4.55,6-3.93,3-11-14.46Z"/><path class="cls-1" d="M585.74,479.26c4.08-4,9.34-4.08,13.4.06s3.92,9.39-.16,13.4-9.38,4.12-13.45,0S581.64,483.29,585.74,479.26Zm10.94,11.16c1.89-1.86,1.55-4.8-1.15-7.55s-5.64-3.13-7.53-1.27-1.55,4.8,1.15,7.55S594.81,492.26,596.68,490.42Z"/><path class="cls-1" d="M610.45,480.19l-14.24-11.33,5.11-6.43c3-3.76,6.83-4.57,10.23-1.86S615,467.18,612,471l-2,2.56,3.54,2.82Zm-3-8.7,1-1.3c1.81-2.28,1.94-4-.09-5.66s-3.71-1.09-5.53,1.19l-1,1.3Z"/><path class="cls-1" d="M299.12,309.27a199,199,0,0,1-16.08,23,12.88,12.88,0,0,1-4.55-8.17,22.18,22.18,0,0,1-.13-3c-8.1,10.61-19.09,22.25-32.7,29.35a58.62,58.62,0,0,1-17.66,6c-.83.14-1.68.25-2.52.35l-1.21.13-.69.06h0a69.39,69.39,0,0,1-9,.25,48.48,48.48,0,0,1-16.91-3.44c-1.13-.46-2.23-1-3.28-1.52a36.47,36.47,0,0,1-10.68-8.41c-26.24-30-5.76-102.32,37.45-133.75a84,84,0,0,1,14.93-8.72q2.5-1.12,5.05-2.05a69.85,69.85,0,0,1,16-3.8c1.11-.12,2.2-.22,3.25-.28a46.92,46.92,0,0,1,12.55.68A32.83,32.83,0,0,1,277,197c29.15,10.23,12,58-7.85,66.95a10.66,10.66,0,0,1-2.47.71c-7.1.8-13.23-8.44-11.23-9.52,24.37-12.87,26.53-43.92,13.47-47.39a10.12,10.12,0,0,0-3.85-.25l-.79.1a45.92,45.92,0,0,0-15.56,5.13c-17.79,9.49-32.32,30-41,52q-1.16,2.89-2.16,5.84l0,.08q-2.67,8.59-4.73,17.43a96.44,96.44,0,0,0-1.95,20.65c.34,14.67,5,26.43,15,31.18a25,25,0,0,0,9.78,2.25,31.68,31.68,0,0,0,3.74-.09c.5,0,1-.07,1.54-.13,24.76-2.8,41.89-24.69,53.76-41.24h0c1.52-4.63,3.31-9.35,5.14-13.83A14,14,0,0,1,299.85,294,14.89,14.89,0,0,1,299.12,309.27Z"/><path class="cls-1" d="M374.22,287.59c-1.45.16-2.83,1.16-4.31,3l0,.05c-3.57,5-7.13,9.92-10.38,14.23-.54.72-1.07,1.42-1.6,2.1a110.61,110.61,0,0,1-7.43,8.9,17.57,17.57,0,0,1-3.14,2.72,3.16,3.16,0,0,1-1.27.53c-1.3.14-1.25-2.85-.41-7.52.65-3.56,1.76-8.08,3.1-12.94,3.74-13.52,9.27-29.6,11.6-34.49a5,5,0,0,0,.53-3.17,5.5,5.5,0,0,0-2.36-3.38,16.48,16.48,0,0,0-10-2.68c-2.09.23-3.85,1.49-5,4-2.07,4.25-6.55,13.23-10.68,23.43-7,16.56-14.86,31-21.64,37.64-2.31,2.26-4.5,3.62-6.46,3.84-3.07.35-4.16-2.51-4-7.11.2-5.78,2.36-14.31,5-22.63,1.43-4.51,3-8.94,4.47-12.85,2-5.37,3.83-9.74,4.87-11.91,3.26-6.71-7.46-9.73-11.84-9.23a6.41,6.41,0,0,0-5.06,4c-.87,1.78-2.17,4.45-3.71,7.73-1.36,2.9-2.9,6.29-4.47,9.93q-1.08,2.5-2.16,5.15c-1.83,4.48-3.62,9.2-5.14,13.83h0c-2.44,7.47-4.19,14.7-4.28,20.32h0a22.18,22.18,0,0,0,.13,3,12.88,12.88,0,0,0,4.55,8.17,22.16,22.16,0,0,0,4.34,3,30.71,30.71,0,0,0,10.84,3.45,10.74,10.74,0,0,0,2.24,0c7.93-.9,16.07-9.44,23.29-20.41,1,9,13.48,16.24,22,15.27,1.5-.18,3.64-1.77,6.22-4.42.85-.86,1.74-1.84,2.68-2.92,1.91-2.23,4-4.87,6.18-7.82.41-.54.8-1.1,1.21-1.65,2.15-2.94,4.36-6.14,6.59-9.48,2.89-4.34,5.8-8.9,8.59-13.47C379.41,290.38,377.36,287.23,374.22,287.59Z"/><path class="cls-1" d="M360.35,264.19c-2.33,4.89-7.86,21-11.6,34.49a73.27,73.27,0,0,1,2.06-12.76A98,98,0,0,1,360.88,261,5,5,0,0,1,360.35,264.19Z"/><path class="cls-1" d="M360.35,264.19c-2.33,4.89-7.86,21-11.6,34.49-1.34,4.86-2.45,9.38-3.1,12.94l-.09-.53c-.19-1.14-.31-2.13-.39-2.87a65.87,65.87,0,0,1,2-23.22,101.73,101.73,0,0,1,11.37-27.36,5.5,5.5,0,0,1,2.36,3.38A5,5,0,0,1,360.35,264.19Z"/><path class="cls-1" d="M439.61,280.16c-1.42.17-2.74,1.11-4.16,2.86-.05.05-.09.11-.14.17-7.87,11-15.64,21.69-23.94,26.65a23,23,0,0,1-3.56,1.75,17.15,17.15,0,0,1-4.08,1c-10.45,1.18-12.93-5.73-13.38-9.7-1.9-16.72,12.55-42.27,21.95-43.33,2.79-.31,4.27,1.34,4.76,3.77.87,4.21-1.14,10.77-4.23,13.56l-.22.19a1.38,1.38,0,0,0-.39,1.94,6.45,6.45,0,0,0,3.23,2.47,6,6,0,0,0,2.79.46,4.09,4.09,0,0,0,1.62-.6c7.54-5.26,9.77-18.09,3.94-26.11a15.69,15.69,0,0,0-2.94-3.05c-3.63-2.87-8.93-4.44-16.15-3.63-16.52,1.88-30.27,23.79-34.83,42.09a43.55,43.55,0,0,0-1.44,14.93c.06.55.13,1.1.23,1.68.78,4.81,2.79,10.75,7.75,15h0c4.52,3.89,11.5,6.36,22.24,5.26l.62-.06a30.28,30.28,0,0,0,12.5-4.56q1.59-1,3.15-2.13c5.65-4.21,10.93-10.05,15.87-16.63,4.17-5.57,8.12-11.68,11.85-17.79C444.8,283,442.75,279.81,439.61,280.16Z"/><path class="cls-1" d="M419.86,281.36a4.09,4.09,0,0,1-1.62.6,6,6,0,0,1-2.79-.46c.36-1.29.74-2.63,1.15-4,1.08-3.72,2.34-7.73,3.83-12.28.16-.51.34-1,.53-1.6l.11-.32c.77-2.33,1.58-4.7,2.4-7.1l.33-.94C429.63,263.27,427.4,276.1,419.86,281.36Z"/><path class="cls-1" d="M419.86,281.36a4.09,4.09,0,0,1-1.62.6,6,6,0,0,1-2.79-.46,6.45,6.45,0,0,1-3.23-2.47c.2-.7.4-1.41.61-2.13l.14-.48c1.1-3.75,2.36-7.8,3.87-12.39.07-.22.15-.45.22-.69l.33-.94.1-.31q1.17-3.51,2.41-7.13l0-.1c.31-.89.61-1.77.93-2.66a15.69,15.69,0,0,1,2.94,3.05C429.63,263.27,427.4,276.1,419.86,281.36Z"/><path class="cls-1" d="M531.74,269.72a3.41,3.41,0,0,0-.54.1,7.5,7.5,0,0,0-3.76,2.92,1.56,1.56,0,0,1-.16.2h0l0,0h0c-7.23,10.09-14.37,19.94-19.16,24.92q-.5.53-1,1c-1.49,1.44-2.7,2.31-3.55,2.4s-1.3-.27-1.43-1.32a13.56,13.56,0,0,1,.9-4.28c1.47-4.68,4.56-12.15,7.57-19.77,3.15-7.95,6.21-16.05,7.32-21.3a13.91,13.91,0,0,0,.4-4.09,13.68,13.68,0,0,0-1.26-4.33,15.61,15.61,0,0,0-10.88-8.53,12.28,12.28,0,0,0-3.73-.16c-7.45.85-21.67,16-33.28,31.59-1.32,1.78-2.61,3.56-3.85,5.32-1,1.35-1.87,2.7-2.76,4-1.42,2.1-2.75,4.16-4,6.12-.52.87-1,1.71-1.51,2.53.45-1.67.93-3.42,1.46-5.24.74-2.58,1.56-5.3,2.42-8.11q.75-2.43,1.55-5c.41-1.3.83-2.61,1.26-3.94,5.12-15.8,11.33-33.36,16.49-47.57,5.69-15.63,10.11-27.21,10.37-27.95,2.28-6-6.64-8.13-11.24-7.62s-6.54,2-8.77,6.5c0,0-2.68,6.39-6.65,16.25-4.66,11.58-11.1,28-17.07,44.36-.27.72-.53,1.44-.79,2.16-.4,1.1-.79,2.2-1.18,3.3-1,2.79-2,5.56-2.92,8.3-.81,2.35-1.59,4.68-2.35,7-.2.61-.41,1.2-.6,1.81-1.34,4.08-2.57,8-3.65,11.69a162.35,162.35,0,0,0-3.95,15.8,47,47,0,0,0-.7,5.35,16.64,16.64,0,0,0,0,3,12.32,12.32,0,0,0,3.35,7,13.82,13.82,0,0,0,1.29,1.25,22.09,22.09,0,0,0,3.66,2.61,29.12,29.12,0,0,0,4.19,2,30.4,30.4,0,0,0,3.85,1.23c.87.22,1.7.38,2.45.5,2.09-.24,2.86-1,2.83-3.07a10,10,0,0,1,.65-2.74,73,73,0,0,1,3.25-7.47c2.44-5,5.82-11.16,9.59-17.54,3.26-5.52,6.82-11.2,10.3-16.36,7.3-10.84,14.29-19.47,17.63-19.85,4.37-.49-2.79,13.8-8.28,27.19-3.16,7.7-5.76,15.1-5.29,19.22,1.23,10.86,18,15.09,22.59,14.57,2.08-.23,5.19-2.85,8.86-7,1-1.14,2.08-2.41,3.17-3.77,2.55-3.16,5.28-6.86,8.07-10.88v0c2.69-3.86,5.44-8,8.14-12.27,1.23-1.94,2.45-3.9,3.65-5.86C536.93,272.52,534.88,269.36,531.74,269.72Z"/><path class="cls-1" d="M561.9,188.63c-2.92.34-5.31,1.67-6.46,4.54-2.45,6.42-6,21.85-6.4,23.8-1,4.34,7.63,7.59,12,7.1a2.89,2.89,0,0,0,2.39-1.33c1.92-4,9.64-16.07,13.13-22.74.24-.45.45-.86.65-1.26a3.11,3.11,0,0,0,.35-1.28h0C577.83,193,568.57,187.88,561.9,188.63ZM573.53,265c-1.4.16-2.7,1.08-4.11,2.78h0a2.54,2.54,0,0,0-.2.24c-4.65,6.48-9.26,12.87-13.24,18a87.19,87.19,0,0,1-6.77,7.89c-1.62,1.61-2.94,2.57-3.84,2.67a.72.72,0,0,1-.33,0c-2.51-1,2.35-19.27,7.31-34.72.51-1.58,1-3.12,1.51-4.62,2.34-7,4.54-12.93,5.8-15.56,3.26-6.72-7.45-9.74-11.84-9.24a6.38,6.38,0,0,0-5.05,4c-.63,1.27-1.49,3-2.48,5.09-.8,1.66-1.67,3.54-2.6,5.57a258,258,0,0,0-10.41,26h0v0c-2.56,7.8-4.35,15.36-4.28,21.08v0c0,.77.06,1.5.13,2.2.76,6.72,7.23,10.93,13.14,13a32.41,32.41,0,0,0,3.85,1.12,17.11,17.11,0,0,0,5,.49c1.83-.21,4.62-2.55,8-6.31a165.61,165.61,0,0,0,11.76-15.39h0c3.89-5.62,7.9-11.84,11.71-18.05C578.71,267.77,576.66,264.62,573.53,265Z"/><path class="cls-1" d="M577.58,197.46a3.11,3.11,0,0,1-.35,1.28c-.2.4-.41.81-.65,1.26Z"/><path class="cls-1" d="M577.58,197.46a3.11,3.11,0,0,1-.35,1.28c-.2.4-.41.81-.65,1.26Z"/><path class="cls-1" d="M577.23,198.74c-.2.4-.41.81-.65,1.26l1-2.54A3.11,3.11,0,0,1,577.23,198.74Z"/><path class="cls-1" d="M624.91,171.69c-.27-1.92-1.95-3.28-4.06-4.13a16.64,16.64,0,0,0-7.5-1.06,15,15,0,0,0-3.28.7,7.55,7.55,0,0,0-3.26,2.26,16.3,16.3,0,0,0-2.24,3.54s-24.7,58.94-35.15,94.75h0c-2.66,9.11-4.4,16.72-4.57,21.48h0a15.55,15.55,0,0,0,.06,2.32c1.23,10.86,19.05,15,23.64,14.45,1.82-.2,4.62-2.55,8-6.31l0-.05a163.86,163.86,0,0,0,11.72-15.33c3.89-5.61,7.91-11.83,11.72-18.06,2.15-3.42.1-6.57-3-6.22-1.39.16-2.7,1.08-4.11,2.79l-.2.24c-7.65,10.67-15.19,21.1-20,25.86-1.63,1.61-2.94,2.56-3.84,2.66a.55.55,0,0,1-.69-.56c-1.37-12,23.64-81.89,33-107.53l1.48-4c1.16-3.15,1.87-5.06,2-5.35A4.75,4.75,0,0,0,624.91,171.69Z"/><path class="cls-1" d="M636.67,261.28h0c3.42-11.9,8.15-26.37,12.89-40.27.55-1.59,1.09-3.18,1.64-4.75.94-2.73,1.87-5.43,2.79-8.06s1.88-5.36,2.79-7.92q.86-2.39,1.65-4.66c2-5.44,3.71-10.34,5.19-14.4,2.57-7.05,4.25-11.58,4.42-12,2.29-6-6.64-8.13-11.23-7.61-3.22.36-5.14,1.2-6.77,3.21a17.57,17.57,0,0,0-2,3.29s-1.43,3.43-3.76,9.13c-.54,1.34-1.14,2.8-1.78,4.38h0c-.86,2.12-1.79,4.44-2.78,6.93-.93,2.3-1.9,4.75-2.91,7.31-.53,1.37-1.08,2.76-1.64,4.18-5.28,13.51-11.32,29.49-16.32,44.2-2.25,6.58-4.29,12.9-6,18.63-2.66,9.12-4.4,16.73-4.57,21.49a15.24,15.24,0,0,0,.06,2.3c.59,5.18,4.95,8.83,9.86,11.18,5.37,2.56,11.39,3.55,13.79,3.28,2-.22,5.18-3,9-7.46l0,0a192.17,192.17,0,0,0,12.43-16.67c3.35-4.95,6.77-10.28,10-15.6,2.15-3.42.1-6.58-3-6.22-1.38.16-2.68,1.06-4.06,2.72-.08.1-.17.2-.25.31-6.79,9.48-13.52,18.77-18.31,24.05-2.42,2.68-4.35,4.33-5.54,4.47a.56.56,0,0,1-.7-.55c-.23-2,.3-5.74,1.38-10.6C633.85,271.47,635.12,266.64,636.67,261.28Z"/><path class="cls-1" d="M697.39,301.17a44.63,44.63,0,0,0,7.48,3.46l-7.74-2.26h0c0-.28-.09-.56-.13-.84C697.13,301.42,697.26,301.29,697.39,301.17Z"/><path class="cls-1" d="M747.56,245.22c-1.47.17-2.83,1.18-4.32,3C733,262.53,723,276.38,719.39,276.78c-5,.56,10-46,14.3-54.95,3.25-6.72-7.45-9.74-11.84-9.24a6.38,6.38,0,0,0-5.06,4c-.85,1.79-2,4.26-3.6,7.39-2.55-5.64-7.85-9.47-18.29-8.29a30.66,30.66,0,0,0-8.07,2A37.43,37.43,0,0,0,676,224.5c-1,.9-2,1.85-3,2.86a54.11,54.11,0,0,0-4.72,5.65,62.75,62.75,0,0,0-4.2,6.46l-.08.13q-1.2,2.11-2.27,4.3h0a84.35,84.35,0,0,0-5.36,13.92,70.53,70.53,0,0,0-2.93,19.1,38.78,38.78,0,0,0,.25,4.55,15.64,15.64,0,0,0,7.73,11.7h0a21.76,21.76,0,0,0,13.61,3,12.28,12.28,0,0,0,3.24-.86,20.56,20.56,0,0,0,3.5-1.9,40.07,40.07,0,0,0,6.4-5.47h0a69,69,0,0,0,5-5.82h0c1.15-1.45,2.26-3,3.36-4.52h0l.58-.84c1,7.32,8.56,11.58,14.8,13.41h0a20.87,20.87,0,0,0,7.16,1c5.43-.61,19.29-20.17,31.46-39.75C752.74,248,750.48,244.89,747.56,245.22Zm-45.9,6.51h0a88,88,0,0,1-8,15.68c-1,1.54-2,3-3.11,4.38a41.05,41.05,0,0,1-5.09,5.53,17.75,17.75,0,0,1-6.44,3.88,9.4,9.4,0,0,1-1.61.33c-1.34.16-2.27-.66-2.82-2.2a8,8,0,0,1-.36-1.27,0,0,0,0,0,0,0s0,0,0,0v0h0s0,0,0,0a19.74,19.74,0,0,1-.28-3.39h0a44.78,44.78,0,0,1,.82-8.06h0a81.8,81.8,0,0,1,3.12-11.9c.34-1,.71-2,1.09-3v0c.76-2,1.6-4,2.52-5.91.75-1.58,1.55-3.13,2.4-4.61,2.61-4.55,5.64-8.47,9-11a14.5,14.5,0,0,1,7.11-3.1C707.91,226,706.83,238.48,701.66,251.73Z"/><path class="cls-1" d="M245.66,350.4a58.62,58.62,0,0,1-17.66,6c-.83.14-1.68.25-2.52.35l-1.21.13-.69.06.82-.65h.38c.52-.35,1-.68,1.55-1l.75-.46c.26-.16.52-.31.78-.44.5-.28,1-.55,1.49-.8l.73-.37c.32-.16.64-.31.95-.44l.5-.22a29,29,0,0,1,3.57-1.28c.47-.13.93-.26,1.4-.36l.29-.06.75-.15.88-.15.87-.12a30,30,0,0,1,3.44-.19l.9,0,.61,0c.22,0,.46,0,.69,0Z"/><path class="cls-1" d="M331.6,388.3l-.24.83c-.09.33-.2.67-.29,1-.21.7-.43,1.41-.66,2.15s-.4,1.27-.62,1.92q-.84,2.57-1.87,5.51c-.13.36-.25.72-.37,1.08-1.12,3.17-2.39,6.67-3.82,10.6-1.34,3.68-2.76,7.57-4.16,11.55l-.83,2.37c-.42,1.21-.84,2.43-1.25,3.65l-.72,2.13-.29.88c-.22.68-.44,1.34-.66,2l-.33,1c-.3-12.11,4.18-28.86,12.72-42Q329.81,390.57,331.6,388.3Z"/><path class="cls-1" d="M224.27,356.87l-.69.06.82-.65h.38c.52-.35,1-.68,1.55-1l.75-.46c.26-.16.52-.31.78-.44.5-.28,1-.55,1.49-.8l.73-.37c.32-.16.64-.31.95-.44l.5-.22a29,29,0,0,1,3.57-1.28c.47-.13.94-.26,1.4-.36l.29-.06.75-.15.88-.15.87-.12a30,30,0,0,1,3.44-.19l.9,0,.61,0c.22,0,.46,0,.69,0l.73.06a58.62,58.62,0,0,1-17.66,6c-.83.14-1.68.25-2.52.35Z"/><path class="cls-1" d="M328.21,393q1.6-2.46,3.39-4.73l-.24.83c-.09.33-.2.67-.29,1-.21.7-.43,1.41-.66,2.15s-.4,1.27-.62,1.92q-.84,2.57-1.87,5.51c-.13.36-.25.72-.37,1.08-1.12,3.17-2.39,6.67-3.82,10.6-1.34,3.68-2.76,7.57-4.16,11.55l-.83,2.37c-.42,1.21-.84,2.43-1.25,3.65l-.72,2.13-.29.88-.66,2-.33,1C315.19,422.89,319.67,406.14,328.21,393Z"/><path class="cls-1" d="M308.68,471.69c-2.48.29-5,.65-7.59,1.05-2.3.36-4.62.74-6.94,1.13-.32-2-.55-4.09-.67-6.14A55.2,55.2,0,0,1,294,456c3.76-27.32,24.72-70.32,23.63-80s-10.66-17.25-19.78-16.22c-9.37,1.07-26,19.31-40.69,38.91,2.33-7.39,4-13.38,3.7-16.25-.83-7.23-6.42-13.33-13-15.48h0a15.82,15.82,0,0,0-6.75-.74c-3,.33-6.81,2.5-11.12,5.93h0l-.13.11c-1.11.88-2.23,1.84-3.4,2.87-2.68,2.39-5.5,5.17-8.37,8.23-4.51,4.79-9.14,10.25-13.61,15.92-5.77,7.32-11.25,15-15.78,22-2.51,3.91-4.74,7.63-6.56,11,1.34-5.65,2.9-11.38,4.51-16.85h0c4.17-14.21,8.72-26.61,10.89-31.05,4.06-8.37-9.28-12.13-14.75-11.5-2.57.28-4.73,1.8-6.22,4.77h0a.54.54,0,0,0-.09.15c-1.86,3.78-5.31,10.86-9.07,19.42h0c-7.91,18-17.14,42.49-15.61,55.91,1.27,11.19,15.38,17,23.43,18.17,2.6-.29,3.55-1.2,3.51-3.83.07-2.48,2.9-9,7.22-17.35,2.34-4.51,5.13-9.56,8.17-14.76,4.37-7.52,9.25-15.39,14-22.51a196.32,196.32,0,0,1,12.62-17.07h0c3.22-3.78,6-6.47,8.13-7.53a4.43,4.43,0,0,1,1.46-.48c2.36-.26,2,2.95.31,8-1.33,4-3.49,9.08-5.85,14.56-3.35,7.81-7.07,16.38-9.34,23.53-1.5,4.75-2.35,8.87-2,11.72,1,8.89,9,14.37,15.5,17a22.23,22.23,0,0,0,7.25,1.79,3.54,3.54,0,0,0,.48,0c4.42-.5,5-2.67,4.61-5.8a30.45,30.45,0,0,1,.3-7.76,67.72,67.72,0,0,1,1.64-7.75q1.24-2.42,2.64-5c.75-1.37,1.52-2.78,2.32-4.21,12.91-23.09,32.08-51.71,38.93-52.49,8.09-.92-13.52,31.88-18.2,60.36a124.59,124.59,0,0,0-1.58,25.76c.13,2.64.36,5.19.69,7.67.2,1.56.44,3.09.72,4.57-2.61.63-5.24,1.28-7.87,1.94q-8.61,2.14-17.38,4.48-9.48,2.49-19.19,5.14l-13.63,3.69C166,507,117,519.81,60.33,526.25c-20.57,2.34-39.59-.25-53.88-12.34-1.45-1.16-2.56-1.55-3.6-1.44-3.91.44-2.75,10.6-2.46,13.2,3.25,28.65,30.66,40,56.44,37.12,62.19-7.06,117.82-29.42,167.72-48.41q6.62-2.52,13.08-4.95c6.23-2.32,12.38-4.57,18.43-6.68l3.38-1.18q6.93-2.4,13.7-4.54l.93-.3q.75,1.62,1.59,3.15c.55,1,1.13,2,1.73,3a47.86,47.86,0,0,0,19.27,17.83A50.67,50.67,0,0,0,319,526a56.15,56.15,0,0,0,6.33-.27c.37,0,.74-.06,1.11-.11C364.16,521.32,361.28,465.72,308.68,471.69Zm17.18,32.88c-13,1.47-21.94-5.16-27.07-15.39a186,186,0,0,1,20.4-3.9C341.32,482.76,339.67,503,325.86,504.57Z"/><path class="cls-1" d="M367.87,331.48c-3.8,6.43-7.29,12.54-8.59,15.29-2.23,4.48,5.56,9.74,9.52,9.29a3.94,3.94,0,0,0,1.63-.61c2.24-1.84,9.64-9.78,16.16-17.18A35,35,0,0,1,367.87,331.48Zm41.72,70.73c-1.38.17-2.67,1.06-4,2.72h0l-.24.29c-10.23,14.28-20.3,28.12-23.85,28.52-5,.58,10-46,14.29-54.94a4.7,4.7,0,0,0,.12-4.37c-1.85-3.65-8.67-5.24-12-4.87-2.09.24-3.85,1.5-5.06,4-.84,1.79-2.05,4.24-3.6,7.38-2.54-5.63-7.84-9.48-18.29-8.29-10.2,1.16-18.71,7.29-25.33,15.66-1.19,1.51-2.32,3.09-3.39,4.72-8.53,13.11-13,29.86-12.71,42,0,.16,0,.31,0,.47,0,1,.12,2,.22,3,.67,5.89,4.45,10.15,9.26,12.55a22,22,0,0,0,9.41,2.29,19.81,19.81,0,0,0,2.68-.12c6.9-.78,15.05-9.11,22.13-19.45.85,6.42,6.77,10.49,12.42,12.63,3.89,1.47,7.65,2,9.53,1.82,4-.46,12.43-11,21.44-24.29h0c3.32-4.9,6.74-10.18,10-15.46C414.77,405,412.51,401.88,409.59,402.21Zm-70.15,36.32c-10,1.14,2.94-52.38,22.58-54.62C378.31,382.06,356.56,436.59,339.44,438.53Z"/><path class="cls-1" d="M409.58,402.21c-1.37.17-2.66,1.06-4.05,2.72h0v0a70.85,70.85,0,0,0-2.93,18.94h0c3.33-4.9,6.74-10.18,10-15.46C414.77,405,412.51,401.88,409.58,402.21Z"/><path class="cls-1" d="M471,359.7c-2.1.23-3.86,1.49-5.06,4-.85,1.79-2,4.67-3.32,8-2.36-5.87-7.71-10.12-18.58-8.89-19.53,2.21-32.93,22.72-38.52,42.2v0h0c1.39-1.66,2.68-2.55,4.05-2.72,2.93-.33,5.19,2.81,3,6.22-3.27,5.28-6.68,10.56-10,15.46h0a43.23,43.23,0,0,0,.25,4.68C404,439,415,444.35,424.2,443.3c6.68-.75,14.47-8.62,21.41-18.3C436,455.93,423.68,483.56,407,485.46c-7.94.91-15.77-2.86-19-8.64-.8-1.39-1.7-1.92-2.75-1.8-1.46.17-2.92,2.24-2.38,5.14,1.43,7,13.18,24.74,33.86,22.39,22.77-2.58,37.37-36.19,47.24-72.22,5.39-19.66,12.55-48,18.85-61.39C486.09,362.21,475.39,359.2,471,359.7Zm-44.45,68.95c-10,1.13,2.94-52.39,22.58-54.62C465.43,372.18,443.68,426.7,426.55,428.65Z"/><path class="cls-1" d="M530.71,388.08c-1.46.17-2.83,1.18-4.31,3,0,0,0,0,0,.07h0c-10.22,14.26-20.26,28.06-23.81,28.46-5,.56,10-46,14.29-54.95,3.26-6.71-7.45-9.73-11.84-9.24a5.89,5.89,0,0,0-2.53.91,7.51,7.51,0,0,0-2.52,3.05c-4.65,9.42-21.44,44.13-19.65,60,.46,4,2.89,7,6,9.36,5.45,4,13,5.62,15.95,5.29,4.17-.48,13.41-12.09,22.88-26.3,2.89-4.32,5.8-8.89,8.58-13.46C535.9,390.89,533.84,387.73,530.71,388.08Zm-11.62-76.34c-2.93.34-5.31,1.67-6.47,4.55-2.45,6.42-6,21.84-6.4,23.79-1,4.35,7.63,7.6,12,7.1a2.86,2.86,0,0,0,2.39-1.33c2-4.25,10.69-17.72,13.78-24C536.84,317.14,526.4,310.92,519.09,311.74Z"/><path class="cls-1" d="M596.1,380.67c-1.38.15-2.67,1.06-4.06,2.72l-.25.31c-6.1,8.51-12.15,16.87-18.42,22.5-4.25,3.81-8.61,6.37-13.16,6.89-10.44,1.19-12.92-5.72-13.37-9.69-1.9-16.71,12.56-42.27,21.95-43.33,7.73-.88,5.33,13.36.3,17.53-2.34,1.74,2.5,5.21,5.64,4.86a4,4,0,0,0,1.22-.38,4.48,4.48,0,0,0,.39-.23c5.68-4,8.34-12.19,6.84-19.44-1.68-8-8.47-14.87-22-13.33-16.53,1.88-30.29,23.8-34.84,42.1a43.71,43.71,0,0,0-1.43,14.92c.06.53.13,1.09.23,1.66,1.5,9.27,7.59,22.85,30.61,20.23,7.27-.83,14-4.74,20.15-10.45a100.83,100.83,0,0,0,13.19-15.37c3.51-4.87,6.84-10.08,10-15.29C601.29,383.47,599.24,380.31,596.1,380.67Z"/><path class="cls-1" d="M699.71,385.4c-2,3.23-4.41,7-7,11A240.34,240.34,0,0,0,698.58,362a19.36,19.36,0,0,1,2,2.89A20,20,0,0,1,699.71,385.4Z"/><path class="cls-1" d="M684,370.78a3.57,3.57,0,0,0-.8,0,5.63,5.63,0,0,0-3.29,1.87h0a15.07,15.07,0,0,0-1,1.15c-10.23,14.28-20.3,28.12-23.85,28.52-5,.57,10-46,14.29-54.95,3.26-6.71-7.46-9.73-11.84-9.23-2.09.23-3.85,1.5-5,4q-1.29,2.68-3.61,7.39c-2.54-5.64-7.85-9.48-18.29-8.29C611,343.42,597.63,363.92,592,383.39a70.9,70.9,0,0,0-2.93,18.78,41.66,41.66,0,0,0,.25,4.86c1.19,10.45,12.16,15.77,21.35,14.72,6.89-.78,15-9.11,22.13-19.44,1.44,10.84,17.36,15,21.95,14.44,3.92-.44,12.25-10.77,21.15-23.84,1.93-2.85,3.9-5.82,5.85-8.85,1.5-2.33,3-4.69,4.46-7.06C688.2,373.9,686.53,371,684,370.78Zm-70.95,36.31c-10,1.15,2.94-52.38,22.58-54.61C651.94,350.63,630.2,405.15,613.07,407.09Z"/><path class="cls-2" d="M205.49,270.67q-2.67,8.59-4.73,17.43A130.7,130.7,0,0,1,205.49,270.67Z"/><path class="cls-2" d="M624.91,171.69q-2-2.08-4.06-4.13C623,168.41,624.64,169.77,624.91,171.69Z"/><path class="cls-3" d="M14,541s8.74,26,69.46,9.47C83.48,550.47,26.89,558.49,14,541Z"/><path class="cls-1" d="M714.52,306.89a42.94,42.94,0,0,1-9.61-2.25h0a44.63,44.63,0,0,1-7.48-3.46c-.13.12-.26.25-.39.36,0,.28.08.56.13.84h0a243.44,243.44,0,0,1,2.62,35.73q0,12.06-1.17,23.85a240.34,240.34,0,0,1-5.91,34.48c-26.19,105.89-122,184.64-235.89,184.64a241.53,241.53,0,0,1-132.45-39.36c-1.56.09-3.12.15-4.65.15A69.34,69.34,0,0,1,304,540.1a64.21,64.21,0,0,1-14.47-5.25c-1.05-.52-2.07-1.07-3.07-1.65-.5-.29-1-.58-1.5-.89l-1.4-.89-.06,0A259.52,259.52,0,0,0,716.37,338.1,262.81,262.81,0,0,0,714.52,306.89ZM340.84,108.57a23.27,23.27,0,0,1,.62-3.12,258.77,258.77,0,0,0-68.25,49.09,261.67,261.67,0,0,0-22.69,25.88c1.6-.28,3.21-.51,4.81-.69l1.15-.13,1.15-.1.77-.06,1-.07,1.24-.07c.4,0,.8,0,1.2-.05h.06q.58,0,1.17,0h1.19c.54,0,1.07,0,1.6,0s1,0,1.56.06h.06c.38,0,.76,0,1.13.07.76,0,1.51.11,2.24.19l1,.12.76.1a244.68,244.68,0,0,1,69.77-56A31.27,31.27,0,0,1,340.84,108.57Zm226.9-5.22a26.93,26.93,0,0,1,1.45,6.52,32.22,32.22,0,0,1-1.13,12.28,243.38,243.38,0,0,1,43.27,28.62l.23,0a30.3,30.3,0,0,1,3.23-.17,32.85,32.85,0,0,1,12,2.3c.48.19.95.4,1.41.62.3.13.59.28.88.44a1.13,1.13,0,0,1,.22.11c.24.12.47.26.71.39a1.18,1.18,0,0,1,.19.11c.17.1.34.19.5.3l.74.48c.28.18.55.37.82.58a2.7,2.7,0,0,1,.36.26l.7.55c.32.27.63.53.93.82a2.44,2.44,0,0,1,.29.27c.17.16.35.33.51.5l.13.14a29,29,0,0,1,3.84-5.16A258.7,258.7,0,0,0,567.74,103.35Z"/><path class="cls-1" d="M348.35,133.3a232,232,0,0,0-57,41.88q-3.72,3.73-7.26,7.6a39.9,39.9,0,0,1,3.69,1.68,228.86,228.86,0,0,1,63.69-48.38A28.31,28.31,0,0,1,348.35,133.3Z"/><path class="cls-1" d="M561.59,133.39a28.4,28.4,0,0,1-3.09,2.79,227.13,227.13,0,0,1,36.14,23.09,24.86,24.86,0,0,1,2.74-2.78A229.31,229.31,0,0,0,561.59,133.39Z"/><path class="cls-1" d="M663.08,430.59a.09.09,0,0,0,0,.05c-35.39,79.84-115.39,135.67-208.18,135.67a226.07,226.07,0,0,1-111.33-29.14,43.33,43.33,0,0,1-4.63,1.84A231.76,231.76,0,0,0,669,426.56,29.31,29.31,0,0,1,663.08,430.59Z"/><path class="cls-1" d="M554.08,115.47a12.7,12.7,0,0,1-8,10.55,14.34,14.34,0,0,1-1.52.54,26.77,26.77,0,0,1-4.9,1,34.68,34.68,0,0,1-4.06.24q-80.61.1-161.2,0a33.51,33.51,0,0,1-4.24-.26,28,28,0,0,1-4-.76,17.93,17.93,0,0,1-2.31-.8,12.75,12.75,0,0,1-7.79-9,17.45,17.45,0,0,1-.24-6.42c.85-6.31,6.82-11.33,13.87-11.61,2.26-.09,4.52,0,7.68,0q.58-4.39,1.47-8.55c6.9-32.71,27.05-53.51,60-62.91C435.11,16.11,437.15,8.59,445.2,3a17.38,17.38,0,0,1,20.54.77c6,4.73,10.2,13.41,5,23.73,21.1,5.66,38.42,16.76,49.91,35.65,4.85,7.94,8.69,16.35,10.07,26,.13,1,.25,1.91.33,2.87l-76.6,8L500,99h35.53a58.65,58.65,0,0,1,6.08.09c6.58.69,12,6,12.57,12.22A18.3,18.3,0,0,1,554.08,115.47Z"/><path class="cls-4" d="M444.85,189.37c-.77,1.89-1.64,4-2.57,6.32-3.55,8.84-8.37,21-13.25,34a43.18,43.18,0,0,0-15.67-4.52l-30.58-24.07c-2.45-1.93-4.2-4-4.15-7.57.21-16.87.11-33.75.15-50.63v-1.09a21.07,21.07,0,0,1,.81-3.54l6,4.63c1.94,1.49,3.83,3,5.7,4.42Q418.11,168.35,444.85,189.37Z"/><path class="cls-5" d="M531.07,197.67l-16.76-13.18a27.31,27.31,0,0,0-4.69-12.56c-8.76-12.73-24.21-13.74-28.76-13.74L461.47,143l-5.46-4.3c6.25-1.47,64.68-1.78,74.92-.5,0,1.58.05,3.17.06,4.76C531.18,160.57,531,178.43,531.07,197.67Z"/><path class="cls-6" d="M293.48,467.73c-2.57,2.64-5.21,5.22-7.82,7.87h-.09l-22.72,22.59-3.41,3.39L247,514l-.05,0q-6.49,6.36-13,12.64a118.13,118.13,0,0,1-10.79,9.21,22.36,22.36,0,0,1-6.62,3c-3.71,1.19-6.36-1.33-9.15-3.09-7-4.38-11-4.17-17.09,1.21Q152,570.77,113.83,604.59c-6.83,6-13.71,12-20.52,18.09q-9.63,8.57-19.18,17.24c-3.63,3.3-4.07,6-1.79,10.31a18,18,0,0,0,2.5,3.34q6.84,7.68,13.73,15.27c4.7,5.15,7.74,5.32,13,.84.66-.56,1.33-1.12,2-1.72l17.36-16.1q32.65-30.18,65.31-60.35c13.39-12.39,27-24.55,40-37.31,17.11-16.76,33.85-33.89,51.12-51.34l4.77-4.81,14.65-19.57,4.28-5.74c-2.3.36-4.62.74-6.94,1.13C293.83,471.83,293.6,469.78,293.48,467.73ZM98.67,627.54c4.94-5.88,76.72-70.42,80.6-72.47C173.93,561.36,102.53,625.55,98.67,627.54ZM285,489.91c-1.76.73-4.33-.13-4.94-1.67s.52-4.27,1.89-5a2.93,2.93,0,0,1,1.62-.24,5.74,5.74,0,0,1,2.08.62h0a3.43,3.43,0,0,1,1.66,1.59C288,486.78,286.77,489.16,285,489.91Z"/><circle class="cls-3" cx="14.02" cy="529.89" r="3.34"/><circle class="cls-7" cx="283.7" cy="486.34" r="3.34"/><path class="cls-8" d="M98.66,627.54s51.41-32.63,80.61-72.47"/><path class="cls-4" d="M737.59,128.19c-36.23.39-39.53,29.86-39.76,37.81,0,.5,0,.92,0,1.24,1.3-39.4-39.75-39.05-39.75-39.05,38.13-.35,41.77-39.76,41.77-39.76C702.44,128.84,737.59,128.19,737.59,128.19Z"/><path class="cls-5" d="M807.26,180.66c-24,.25-26.15,19.74-26.3,25,0,.33,0,.61,0,.82.86-26.06-26.29-25.82-26.29-25.82,25.22-.24,27.63-26.3,27.63-26.3C784,181.08,807.26,180.66,807.26,180.66Z"/><path class="cls-7" d="M782.23,167.29s2.38,10.63,12.36,12.86C794.59,180.15,782.33,179.62,782.23,167.29Z"/><path class="cls-7" d="M700.53,111.28s3.83,13.85,17.12,16.14C717.65,127.42,701.46,127.52,700.53,111.28Z"/></g></g></svg>