<svg xmlns="http://www.w3.org/2000/svg" viewBox="0 0 826.59 672.88"><defs><style>.cls-1{fill:#282220;}.cls-2{fill:#1e1e1c;}.cls-3{fill:#fff;}.cls-4{fill:#372f2c;}.cls-5{fill:#1d1d1b;}.cls-6{fill:#d80f25;}.cls-7{fill:#2c3a5f;}.cls-8{fill:#d38036;}</style></defs><g id="Capa_2" data-name="Capa 2"><g id="Capa_1-2" data-name="Capa 1"><path class="cls-1" d="M318.46,309.27a199.37,199.37,0,0,1-16.09,23,12.93,12.93,0,0,1-4.55-8.17,24,24,0,0,1-.13-3c-8.1,10.61-19.08,22.25-32.7,29.35a58.65,58.65,0,0,1-17.65,6c-.84.14-1.68.25-2.53.35l-1.21.13-.68.06h0a69.48,69.48,0,0,1-9,.25A48.38,48.38,0,0,1,217,353.74c-1.14-.46-2.23-1-3.29-1.52A36.6,36.6,0,0,1,203,343.81c-26.24-30-5.76-102.32,37.46-133.75a83.62,83.62,0,0,1,14.93-8.72q2.49-1.12,5-2.05a69.85,69.85,0,0,1,16-3.8c1.11-.12,2.2-.22,3.25-.28a46.87,46.87,0,0,1,12.55.68,31.89,31.89,0,0,1,4.06,1.12c29.16,10.23,12,58-7.85,66.95a10.58,10.58,0,0,1-2.46.71c-7.11.8-13.23-8.44-11.24-9.52,24.38-12.87,26.54-43.92,13.47-47.39a10.11,10.11,0,0,0-3.85-.25l-.79.1A45.86,45.86,0,0,0,268,212.74c-17.8,9.49-32.33,30-41,52-.77,1.93-1.5,3.88-2.17,5.84a.24.24,0,0,0,0,.08q-2.69,8.59-4.73,17.43a96.44,96.44,0,0,0-1.95,20.65c.34,14.67,5,26.43,15,31.18a25,25,0,0,0,9.78,2.25,31.85,31.85,0,0,0,3.75-.09c.5,0,1-.07,1.53-.13,24.76-2.8,41.89-24.69,53.76-41.24h0c1.52-4.63,3.3-9.35,5.13-13.83A14,14,0,0,1,319.18,294,14.91,14.91,0,0,1,318.46,309.27Z"/><path class="cls-1" d="M393.56,287.59c-1.46.16-2.84,1.16-4.32,3,0,0,0,0,0,.05-3.57,5-7.12,9.92-10.38,14.23-.53.72-1.07,1.42-1.59,2.1a108.38,108.38,0,0,1-7.44,8.9,17.23,17.23,0,0,1-3.13,2.72,3.19,3.19,0,0,1-1.28.53c-1.29.14-1.25-2.85-.41-7.52.65-3.56,1.76-8.08,3.1-12.94,3.74-13.52,9.28-29.6,11.61-34.49a5,5,0,0,0,.52-3.17,5.5,5.5,0,0,0-2.36-3.38,16.45,16.45,0,0,0-10-2.68c-2.1.23-3.86,1.49-5.05,4-2.06,4.25-6.54,13.23-10.68,23.43-7,16.56-14.86,31-21.64,37.64-2.31,2.26-4.49,3.62-6.46,3.84-3.07.35-4.15-2.51-4-7.11.19-5.78,2.35-14.31,5-22.63,1.43-4.51,3-8.94,4.47-12.85,2-5.37,3.84-9.74,4.87-11.91,3.26-6.71-7.45-9.73-11.84-9.23a6.38,6.38,0,0,0-5.05,4c-.88,1.78-2.18,4.45-3.71,7.73-1.36,2.9-2.9,6.29-4.47,9.93-.72,1.67-1.45,3.39-2.17,5.15-1.83,4.48-3.61,9.2-5.13,13.83h0c-2.44,7.47-4.19,14.7-4.28,20.32h0a24,24,0,0,0,.13,3,12.93,12.93,0,0,0,4.55,8.17,22.46,22.46,0,0,0,4.34,3,30.77,30.77,0,0,0,10.84,3.45,10.75,10.75,0,0,0,2.24,0c7.94-.9,16.07-9.44,23.29-20.41,1,9,13.49,16.24,22.05,15.27,1.49-.18,3.64-1.77,6.21-4.42.85-.86,1.74-1.84,2.68-2.92,1.92-2.23,4-4.87,6.19-7.82.41-.54.8-1.1,1.21-1.65,2.14-2.94,4.36-6.14,6.58-9.48,2.89-4.34,5.8-8.9,8.6-13.47C398.75,290.38,396.69,287.23,393.56,287.59Z"/><path class="cls-1" d="M379.69,264.19c-2.33,4.89-7.87,21-11.61,34.49a73.27,73.27,0,0,1,2.06-12.76A98.33,98.33,0,0,1,380.21,261,5,5,0,0,1,379.69,264.19Z"/><path class="cls-1" d="M379.69,264.19c-2.33,4.89-7.87,21-11.61,34.49-1.34,4.86-2.45,9.38-3.1,12.94l-.09-.53c-.19-1.14-.31-2.13-.38-2.87a65.64,65.64,0,0,1,2-23.22,101.38,101.38,0,0,1,11.36-27.36,5.5,5.5,0,0,1,2.36,3.38A5,5,0,0,1,379.69,264.19Z"/><path class="cls-1" d="M458.94,280.16c-1.42.17-2.73,1.11-4.16,2.86a1.77,1.77,0,0,1-.14.17c-7.87,11-15.64,21.69-23.93,26.65a23.53,23.53,0,0,1-3.57,1.75,16.92,16.92,0,0,1-4.08,1c-10.45,1.18-12.93-5.73-13.38-9.7-1.9-16.72,12.56-42.27,22-43.33,2.79-.31,4.26,1.34,4.76,3.77.87,4.21-1.15,10.77-4.23,13.56l-.23.19a1.39,1.39,0,0,0-.39,1.94,6.48,6.48,0,0,0,3.24,2.47,5.93,5.93,0,0,0,2.78.46,4,4,0,0,0,1.62-.6c7.54-5.26,9.77-18.09,3.94-26.11a15.69,15.69,0,0,0-2.94-3.05c-3.63-2.87-8.93-4.44-16.15-3.63-16.52,1.88-30.27,23.79-34.83,42.09a43.52,43.52,0,0,0-1.43,14.93c.06.55.13,1.1.22,1.68.78,4.81,2.79,10.75,7.76,15h0c4.51,3.89,11.5,6.36,22.23,5.26.21,0,.42,0,.62-.06a30.37,30.37,0,0,0,12.51-4.56c1.05-.65,2.1-1.36,3.14-2.13,5.66-4.21,10.93-10.05,15.87-16.63,4.17-5.57,8.13-11.68,11.85-17.79C464.13,283,462.08,279.81,458.94,280.16Z"/><path class="cls-1" d="M439.19,281.36a4,4,0,0,1-1.62.6,5.93,5.93,0,0,1-2.78-.46c.35-1.29.73-2.63,1.14-4,1.09-3.72,2.34-7.73,3.83-12.28l.54-1.6.1-.32c.77-2.33,1.58-4.7,2.4-7.1l.33-.94C449,263.27,446.73,276.1,439.19,281.36Z"/><path class="cls-1" d="M439.19,281.36a4,4,0,0,1-1.62.6,5.93,5.93,0,0,1-2.78-.46,6.48,6.48,0,0,1-3.24-2.47c.2-.7.41-1.41.62-2.13l.13-.48c1.11-3.75,2.37-7.8,3.87-12.39l.23-.69c.1-.31.21-.62.32-.94l.1-.31q1.17-3.51,2.41-7.13l0-.1c.31-.89.61-1.77.93-2.66a15.69,15.69,0,0,1,2.94,3.05C449,263.27,446.73,276.1,439.19,281.36Z"/><path class="cls-1" d="M551.08,269.72a3.33,3.33,0,0,0-.55.1,7.5,7.5,0,0,0-3.76,2.92,1.49,1.49,0,0,1-.15.2h0l0,0h0c-7.24,10.09-14.38,19.94-19.17,24.92q-.49.53-1,1c-1.49,1.44-2.7,2.31-3.55,2.4s-1.3-.27-1.42-1.32a13,13,0,0,1,.9-4.28c1.47-4.68,4.55-12.15,7.57-19.77,3.14-7.95,6.21-16.05,7.31-21.3a13.91,13.91,0,0,0,.4-4.09,13.41,13.41,0,0,0-1.25-4.33,15.63,15.63,0,0,0-10.88-8.53,12.36,12.36,0,0,0-3.74-.16c-7.45.85-21.67,16-33.27,31.59-1.32,1.78-2.62,3.56-3.85,5.32-1,1.35-1.88,2.7-2.76,4-1.42,2.1-2.75,4.16-4,6.12-.53.87-1,1.71-1.52,2.53q.68-2.51,1.47-5.24c.74-2.58,1.55-5.3,2.41-8.11q.75-2.43,1.55-5c.42-1.3.83-2.61,1.26-3.94,5.12-15.8,11.33-33.36,16.5-47.57,5.69-15.63,10.1-27.21,10.36-27.95,2.29-6-6.64-8.13-11.23-7.62s-6.54,2-8.78,6.5c0,0-2.68,6.39-6.64,16.25-4.66,11.58-11.11,28-17.08,44.36-.26.72-.53,1.44-.78,2.16-.4,1.1-.8,2.2-1.19,3.3q-1.49,4.19-2.92,8.3c-.8,2.35-1.59,4.68-2.35,7l-.6,1.81c-1.34,4.08-2.57,8-3.65,11.69a159.12,159.12,0,0,0-3.94,15.8,47.27,47.27,0,0,0-.71,5.35,17.6,17.6,0,0,0,0,3,12.34,12.34,0,0,0,3.36,7,12.59,12.59,0,0,0,1.28,1.25,22.09,22.09,0,0,0,3.66,2.61,29.63,29.63,0,0,0,4.19,2,30.53,30.53,0,0,0,3.86,1.23c.87.22,1.69.38,2.44.5,2.1-.24,2.86-1,2.83-3.07a10.11,10.11,0,0,1,.66-2.74,70.84,70.84,0,0,1,3.25-7.47c2.43-5,5.81-11.16,9.58-17.54,3.27-5.52,6.82-11.2,10.3-16.36,7.3-10.84,14.29-19.47,17.63-19.85,4.37-.49-2.79,13.8-8.27,27.19-3.16,7.7-5.77,15.1-5.3,19.22,1.23,10.86,18,15.09,22.6,14.57,2.08-.23,5.18-2.85,8.85-7,1-1.14,2.08-2.41,3.18-3.77,2.54-3.16,5.27-6.86,8.06-10.88,0,0,0,0,0,0,2.7-3.86,5.45-8,8.14-12.27,1.24-1.94,2.45-3.9,3.65-5.86C556.27,272.52,554.21,269.36,551.08,269.72Z"/><path class="cls-1" d="M581.24,188.63c-2.93.34-5.31,1.67-6.47,4.54-2.45,6.42-6,21.85-6.4,23.8-1,4.34,7.63,7.59,12,7.1a2.87,2.87,0,0,0,2.39-1.33c1.93-4,9.64-16.07,13.14-22.74l.64-1.26a3.28,3.28,0,0,0,.36-1.28h0C597.16,193,587.9,187.88,581.24,188.63ZM592.87,265c-1.4.16-2.71,1.08-4.11,2.78h0a1.64,1.64,0,0,0-.21.24c-4.65,6.48-9.25,12.87-13.24,18a85.61,85.61,0,0,1-6.77,7.89c-1.62,1.61-2.93,2.57-3.83,2.67a.76.76,0,0,1-.34,0c-2.5-1,2.35-19.27,7.32-34.72.5-1.58,1-3.12,1.51-4.62,2.33-7,4.53-12.93,5.79-15.56,3.26-6.72-7.45-9.74-11.84-9.24a6.38,6.38,0,0,0-5,4c-.63,1.27-1.48,3-2.48,5.09-.79,1.66-1.67,3.54-2.6,5.57a258,258,0,0,0-10.4,26h0l0,0c-2.56,7.8-4.34,15.36-4.28,21.08,0,0,0,0,0,0a21.8,21.8,0,0,0,.14,2.2c.76,6.72,7.23,10.93,13.13,13a32.54,32.54,0,0,0,3.86,1.12,17,17,0,0,0,5,.49c1.83-.21,4.63-2.55,8-6.31a163.88,163.88,0,0,0,11.76-15.39h0c3.9-5.62,7.91-11.84,11.72-18.05C598.05,267.77,596,264.62,592.87,265Z"/><path class="cls-1" d="M596.92,197.46a3.28,3.28,0,0,1-.36,1.28l-.64,1.26C596.25,199.14,596.58,198.3,596.92,197.46Z"/><path class="cls-1" d="M596.92,197.46a3.28,3.28,0,0,1-.36,1.28l-.64,1.26C596.25,199.14,596.58,198.3,596.92,197.46Z"/><path class="cls-1" d="M596.56,198.74l-.64,1.26c.33-.86.66-1.7,1-2.54A3.28,3.28,0,0,1,596.56,198.74Z"/><path class="cls-1" d="M644.24,171.69c-.27-1.92-2-3.28-4-4.13a16.66,16.66,0,0,0-7.51-1.06,15.16,15.16,0,0,0-3.28.7,7.61,7.61,0,0,0-3.26,2.26A16.3,16.3,0,0,0,623.9,173s-24.7,58.94-35.14,94.75h0c-2.66,9.11-4.4,16.72-4.58,21.48h0a17,17,0,0,0,.06,2.32c1.24,10.86,19,15,23.65,14.45,1.82-.2,4.61-2.55,8-6.31l0-.05a163.86,163.86,0,0,0,11.72-15.33c3.89-5.61,7.91-11.83,11.72-18.06,2.14-3.42.09-6.57-3-6.22-1.39.16-2.71,1.08-4.11,2.79-.07.07-.14.16-.21.24-7.64,10.67-15.19,21.1-20,25.86-1.64,1.61-2.94,2.56-3.84,2.66a.56.56,0,0,1-.7-.56c-1.36-12,23.64-81.89,33-107.53l1.48-4c1.15-3.15,1.86-5.06,2-5.35A4.73,4.73,0,0,0,644.24,171.69Z"/><path class="cls-1" d="M656,261.28h0c3.41-11.9,8.14-26.37,12.89-40.27.54-1.59,1.09-3.18,1.63-4.75.94-2.73,1.87-5.43,2.79-8.06s1.89-5.36,2.79-7.92q.85-2.39,1.66-4.66c1.94-5.44,3.71-10.34,5.19-14.4,2.56-7.05,4.24-11.58,4.41-12,2.29-6-6.63-8.13-11.23-7.61-3.22.36-5.13,1.2-6.77,3.21a18.12,18.12,0,0,0-2,3.29s-1.44,3.43-3.77,9.13c-.54,1.34-1.14,2.8-1.77,4.38h0C661,183.7,660,186,659,188.51c-.92,2.3-1.9,4.75-2.9,7.31L654.48,200c-5.27,13.51-11.32,29.49-16.32,44.2-2.25,6.58-4.28,12.9-5.95,18.63-2.67,9.12-4.41,16.73-4.57,21.49a14,14,0,0,0,.06,2.3c.59,5.18,4.95,8.83,9.85,11.18,5.37,2.56,11.39,3.55,13.8,3.28,2-.22,5.18-3,9-7.46,0,0,0,0,0,0a190.14,190.14,0,0,0,12.43-16.67c3.36-4.95,6.77-10.28,10-15.6,2.14-3.42.1-6.58-3-6.22-1.38.16-2.68,1.06-4.06,2.72l-.25.31c-6.79,9.48-13.51,18.77-18.3,24.05-2.43,2.68-4.36,4.33-5.55,4.47a.56.56,0,0,1-.7-.55c-.23-2,.3-5.74,1.38-10.6C653.18,271.47,654.46,266.64,656,261.28Z"/><path class="cls-1" d="M716.72,301.17a44.63,44.63,0,0,0,7.48,3.46l-7.74-2.26h0c-.05-.28-.08-.56-.13-.84C716.46,301.42,716.6,301.29,716.72,301.17Z"/><path class="cls-1" d="M766.89,245.22c-1.46.17-2.83,1.18-4.31,3-10.23,14.28-20.3,28.13-23.85,28.53-5,.56,10-46,14.29-54.95,3.26-6.72-7.45-9.74-11.84-9.24a6.38,6.38,0,0,0-5,4c-.86,1.79-2.06,4.26-3.61,7.39-2.54-5.64-7.85-9.47-18.29-8.29a30.66,30.66,0,0,0-8.07,2,37.56,37.56,0,0,0-10.84,6.8c-1,.9-2,1.85-3,2.86a54.11,54.11,0,0,0-4.72,5.65,62.75,62.75,0,0,0-4.2,6.46.57.57,0,0,1-.08.13c-.8,1.41-1.55,2.84-2.27,4.3h0a84.35,84.35,0,0,0-5.36,13.92,70.53,70.53,0,0,0-2.93,19.1,38.78,38.78,0,0,0,.25,4.55,15.65,15.65,0,0,0,7.74,11.7h0a21.76,21.76,0,0,0,13.61,3,12.28,12.28,0,0,0,3.24-.86,20.19,20.19,0,0,0,3.5-1.9,39.64,39.64,0,0,0,6.4-5.47h0a70.88,70.88,0,0,0,5.05-5.82h0q1.71-2.17,3.35-4.52h0l.58-.84c1,7.32,8.56,11.58,14.81,13.41h0a20.79,20.79,0,0,0,7.15,1c5.43-.61,19.3-20.17,31.46-39.75C772.08,248,769.82,244.89,766.89,245.22ZM721,251.73h0a88,88,0,0,1-8,15.68c-1,1.54-2,3-3.1,4.38a41.76,41.76,0,0,1-5.1,5.53,17.72,17.72,0,0,1-6.43,3.88,9.51,9.51,0,0,1-1.62.33c-1.34.16-2.27-.66-2.82-2.2a8,8,0,0,1-.35-1.27v0s0,0,0,0v0h0s0,0,0,0a19.74,19.74,0,0,1-.28-3.39h0a46.68,46.68,0,0,1,.82-8.06h0a81.8,81.8,0,0,1,3.12-11.9c.35-1,.71-2,1.1-3v0c.76-2,1.6-4,2.51-5.91.76-1.58,1.56-3.13,2.4-4.61,2.62-4.55,5.65-8.47,9-11a14.43,14.43,0,0,1,7.11-3.1C727.25,226,726.17,238.48,721,251.73Z"/><path class="cls-1" d="M265,350.4a58.65,58.65,0,0,1-17.65,6c-.84.14-1.68.25-2.53.35l-1.21.13-.68.06.81-.65h.38q.78-.52,1.56-1c.24-.16.49-.31.74-.46s.52-.31.78-.44c.5-.28,1-.55,1.49-.8l.73-.37c.32-.16.65-.31,1-.44l.49-.22a29,29,0,0,1,3.57-1.28c.48-.13.94-.26,1.41-.36l.28-.06.76-.15.87-.15.87-.12a30.12,30.12,0,0,1,3.44-.19l.91,0,.6,0c.23,0,.46,0,.69,0Z"/><path class="cls-1" d="M350.93,388.3l-.23.83-.3,1c-.2.7-.42,1.41-.66,2.15s-.4,1.27-.62,1.92q-.84,2.57-1.86,5.51c-.13.36-.26.72-.38,1.08-1.12,3.17-2.39,6.67-3.82,10.6-1.33,3.68-2.75,7.57-4.15,11.55l-.83,2.37c-.43,1.21-.84,2.43-1.26,3.65-.24.71-.48,1.42-.71,2.13l-.3.88c-.22.68-.44,1.34-.66,2-.1.34-.22.68-.32,1-.3-12.11,4.18-28.86,12.71-42Q349.15,390.57,350.93,388.3Z"/><path class="cls-1" d="M243.6,356.87l-.68.06.81-.65h.38q.78-.52,1.56-1c.24-.16.49-.31.74-.46s.52-.31.78-.44c.5-.28,1-.55,1.49-.8l.73-.37c.32-.16.65-.31,1-.44l.49-.22a29,29,0,0,1,3.57-1.28c.48-.13.94-.26,1.41-.36l.28-.06.76-.15.87-.15.87-.12a30.12,30.12,0,0,1,3.44-.19l.91,0,.6,0c.23,0,.46,0,.69,0l.73.06a58.65,58.65,0,0,1-17.65,6c-.84.14-1.68.25-2.53.35Z"/><path class="cls-1" d="M347.54,393q1.6-2.46,3.39-4.73l-.23.83-.3,1c-.2.7-.42,1.41-.66,2.15s-.4,1.27-.62,1.92q-.84,2.57-1.86,5.51l-.38,1.08c-1.12,3.17-2.39,6.67-3.82,10.6-1.33,3.68-2.75,7.57-4.15,11.55-.28.79-.56,1.58-.83,2.37-.43,1.21-.84,2.43-1.26,3.65-.24.71-.48,1.42-.71,2.13l-.3.88-.66,2c-.1.34-.22.68-.32,1C334.53,422.89,339,406.14,347.54,393Z"/><path class="cls-1" d="M328,471.69c-2.48.29-5,.65-7.59,1.05-2.3.36-4.62.74-6.94,1.13-.32-2-.55-4.09-.67-6.14A55.2,55.2,0,0,1,313.3,456c3.76-27.32,24.72-70.32,23.63-80s-10.66-17.25-19.78-16.22c-9.37,1.07-26,19.31-40.69,38.91,2.33-7.39,4-13.38,3.7-16.25-.83-7.23-6.42-13.33-13-15.48h0a15.82,15.82,0,0,0-6.75-.74c-3,.33-6.81,2.5-11.12,5.93h0l-.13.11c-1.11.88-2.23,1.84-3.4,2.87-2.68,2.39-5.5,5.17-8.37,8.23-4.51,4.79-9.14,10.25-13.61,15.92-5.77,7.32-11.25,15-15.78,22-2.51,3.91-4.74,7.63-6.56,11,1.34-5.65,2.9-11.38,4.51-16.85h0c4.17-14.21,8.72-26.61,10.89-31.05,4.06-8.37-9.28-12.13-14.75-11.5-2.57.28-4.73,1.8-6.22,4.77h0a.54.54,0,0,0-.09.15c-1.86,3.78-5.31,10.86-9.07,19.42h0c-7.91,18-17.14,42.49-15.61,55.91,1.27,11.19,15.38,17,23.43,18.17,2.6-.29,3.55-1.2,3.51-3.83.07-2.48,2.9-9,7.22-17.35,2.34-4.51,5.13-9.56,8.17-14.76,4.37-7.52,9.25-15.39,14-22.51a196.32,196.32,0,0,1,12.62-17.07h0c3.22-3.78,6-6.47,8.13-7.53a4.43,4.43,0,0,1,1.46-.48c2.36-.26,2,2.95.31,8-1.33,4-3.49,9.08-5.85,14.56-3.35,7.81-7.07,16.38-9.34,23.53-1.5,4.75-2.35,8.87-2,11.72,1,8.89,9,14.37,15.5,17a22.23,22.23,0,0,0,7.25,1.79,3.54,3.54,0,0,0,.48,0c4.42-.5,5-2.67,4.61-5.8a30.45,30.45,0,0,1,.3-7.76,67.72,67.72,0,0,1,1.64-7.75q1.25-2.42,2.64-5c.75-1.37,1.52-2.78,2.32-4.21,12.91-23.09,32.08-51.71,38.93-52.49,8.09-.92-13.52,31.88-18.2,60.36a124.59,124.59,0,0,0-1.58,25.76c.13,2.64.36,5.19.69,7.67.2,1.56.44,3.09.72,4.57-2.61.63-5.24,1.28-7.87,1.94q-8.61,2.14-17.38,4.48-9.48,2.49-19.19,5.14L230,494.91c-44.63,12.08-93.6,24.9-150.3,31.34-20.57,2.34-39.59-.25-53.88-12.34-1.45-1.16-2.56-1.55-3.6-1.44-3.91.44-2.75,10.6-2.46,13.2,3.25,28.65,30.66,40,56.44,37.12,62.19-7.06,117.82-29.42,167.72-48.41q6.62-2.52,13.08-4.95c6.23-2.32,12.38-4.57,18.43-6.68l3.38-1.18q6.93-2.4,13.7-4.54l.93-.3q.75,1.62,1.59,3.15c.55,1,1.13,2,1.73,3A47.86,47.86,0,0,0,316,520.69,50.67,50.67,0,0,0,338.3,526a56.15,56.15,0,0,0,6.33-.27c.37,0,.74-.06,1.11-.11C383.49,521.32,380.61,465.72,328,471.69Zm17.18,32.88c-13,1.47-21.94-5.16-27.07-15.39a186,186,0,0,1,20.4-3.9C360.65,482.76,359,503,345.19,504.57Z"/><path class="cls-1" d="M387.2,331.48c-3.8,6.43-7.29,12.54-8.59,15.29-2.23,4.48,5.56,9.74,9.52,9.29a3.94,3.94,0,0,0,1.63-.61c2.24-1.84,9.64-9.78,16.16-17.18A35,35,0,0,1,387.2,331.48Zm41.72,70.73c-1.38.17-2.67,1.06-4.05,2.72h0l-.24.29c-10.23,14.28-20.3,28.12-23.85,28.52-5,.58,10-46,14.29-54.94a4.7,4.7,0,0,0,.12-4.37c-1.85-3.65-8.67-5.24-12-4.87-2.09.24-3.85,1.5-5.06,4-.84,1.79-2,4.24-3.6,7.38-2.54-5.63-7.84-9.48-18.29-8.29-10.2,1.16-18.71,7.29-25.33,15.66-1.19,1.51-2.32,3.09-3.39,4.72-8.53,13.11-13,29.86-12.71,42,0,.16,0,.31,0,.47,0,1,.12,2,.22,3,.67,5.89,4.45,10.15,9.26,12.55a22,22,0,0,0,9.41,2.29,19.81,19.81,0,0,0,2.68-.12c6.9-.78,15-9.11,22.13-19.45.85,6.42,6.77,10.49,12.42,12.63,3.89,1.47,7.65,2,9.53,1.82,4-.46,12.43-11,21.44-24.29h0c3.32-4.9,6.74-10.18,10-15.46C434.1,405,431.84,401.88,428.92,402.21Zm-70.15,36.32c-10,1.14,2.94-52.38,22.58-54.62C397.64,382.06,375.89,436.59,358.77,438.53Z"/><path class="cls-1" d="M428.92,402.21c-1.38.17-2.67,1.06-4.05,2.72h0l0,0a70.81,70.81,0,0,0-2.92,18.94h0c3.32-4.9,6.74-10.18,10-15.46C434.1,405,431.84,401.88,428.92,402.21Z"/><path class="cls-1" d="M490.33,359.7c-2.09.23-3.85,1.49-5.06,4-.85,1.79-2,4.67-3.32,8-2.36-5.87-7.71-10.12-18.57-8.89-19.53,2.21-32.94,22.72-38.53,42.2l0,0h0c1.38-1.66,2.67-2.55,4.05-2.72,2.92-.33,5.18,2.81,3,6.22-3.27,5.28-6.69,10.56-10,15.46h0a40.82,40.82,0,0,0,.25,4.68c1.18,10.45,12.16,15.77,21.35,14.72,6.69-.75,14.47-8.62,21.41-18.3-9.61,30.93-21.92,58.56-38.64,60.46-7.94.91-15.76-2.86-19-8.64-.79-1.39-1.7-1.92-2.74-1.8-1.47.17-2.93,2.24-2.38,5.14,1.42,7,13.17,24.74,33.85,22.39,22.78-2.58,37.37-36.19,47.25-72.22,5.38-19.66,12.54-48,18.85-61.39C505.43,362.21,494.72,359.2,490.33,359.7Zm-44.44,68.95c-10,1.13,2.94-52.39,22.57-54.62C484.76,372.18,463,426.7,445.89,428.65Z"/><path class="cls-1" d="M550.05,388.08c-1.47.17-2.83,1.18-4.32,3,0,0,0,0,0,.07h0c-10.22,14.26-20.26,28.06-23.81,28.46-5,.56,10-46,14.3-54.95,3.25-6.71-7.45-9.73-11.84-9.24a5.85,5.85,0,0,0-2.53.91,7.53,7.53,0,0,0-2.53,3.05c-4.64,9.42-21.44,44.13-19.64,60,.45,4,2.88,7,6,9.36,5.45,4,13,5.62,16,5.29,4.16-.48,13.4-12.09,22.88-26.3,2.88-4.32,5.79-8.89,8.58-13.46C555.23,390.89,553.18,387.73,550.05,388.08Zm-11.63-76.34c-2.92.34-5.31,1.67-6.47,4.55-2.45,6.42-6,21.84-6.4,23.79-1,4.35,7.63,7.6,12,7.1a2.85,2.85,0,0,0,2.39-1.33c2.06-4.25,10.69-17.72,13.78-24C556.18,317.14,545.73,310.92,538.42,311.74Z"/><path class="cls-1" d="M615.43,380.67c-1.37.15-2.67,1.06-4,2.72a3.76,3.76,0,0,0-.25.31C605,392.21,599,400.57,592.7,406.2c-4.25,3.81-8.61,6.37-13.15,6.89-10.45,1.19-12.92-5.72-13.38-9.69-1.89-16.71,12.56-42.27,22-43.33,7.73-.88,5.33,13.36.29,17.53-2.33,1.74,2.5,5.21,5.64,4.86a3.79,3.79,0,0,0,1.22-.38c.15-.08.28-.15.4-.23,5.67-4,8.34-12.19,6.83-19.44-1.67-8-8.47-14.87-22-13.33-16.54,1.88-30.3,23.8-34.85,42.1a43.71,43.71,0,0,0-1.43,14.92c.06.53.14,1.09.24,1.66C546,417,552.08,430.61,575.1,428c7.27-.83,14-4.74,20.15-10.45a100.87,100.87,0,0,0,13.2-15.37c3.5-4.87,6.83-10.08,10-15.29C620.62,383.47,618.57,380.31,615.43,380.67Z"/><path class="cls-1" d="M719,385.4c-2,3.23-4.41,7-7,11A241.75,241.75,0,0,0,717.92,362a19.3,19.3,0,0,1,2,2.89A20,20,0,0,1,719,385.4Z"/><path class="cls-1" d="M703.35,370.78a3.48,3.48,0,0,0-.79,0,5.62,5.62,0,0,0-3.3,1.87h0a15.07,15.07,0,0,0-1,1.15c-10.23,14.28-20.3,28.12-23.85,28.52-5,.57,10-46,14.29-54.95,3.26-6.71-7.45-9.73-11.83-9.23-2.1.23-3.86,1.5-5.06,4q-1.27,2.68-3.6,7.39c-2.55-5.64-7.85-9.48-18.3-8.29-19.53,2.21-32.92,22.71-38.51,42.18a70.49,70.49,0,0,0-2.93,18.78,41.73,41.73,0,0,0,.24,4.86c1.19,10.45,12.16,15.77,21.36,14.72,6.89-.78,15-9.11,22.12-19.44,1.44,10.84,17.36,15,22,14.44,3.92-.44,12.24-10.77,21.14-23.84,1.94-2.85,3.9-5.82,5.85-8.85,1.51-2.33,3-4.69,4.47-7.06C707.54,373.9,705.87,371,703.35,370.78Zm-71,36.31c-10,1.15,2.94-52.38,22.58-54.61C671.28,350.63,649.53,405.15,632.4,407.09Z"/><path class="cls-1" d="M224.83,270.67q-2.69,8.59-4.73,17.43A129.2,129.2,0,0,1,224.83,270.67Z"/><path class="cls-2" d="M644.24,171.69q-2-2.08-4-4.13C642.29,168.41,644,169.77,644.24,171.69Z"/><path class="cls-3" d="M33.36,541s8.74,26,69.45,9.47C102.81,550.47,46.23,558.49,33.36,541Z"/><path class="cls-1" d="M733.85,306.89a42.94,42.94,0,0,1-9.61-2.25h0a44.63,44.63,0,0,1-7.48-3.46c-.12.12-.26.25-.39.36,0,.28.08.56.13.84h0a243.44,243.44,0,0,1,2.62,35.73q0,12.06-1.16,23.85A241.75,241.75,0,0,1,712,396.43C685.81,502.32,590,581.07,476.11,581.07a241.58,241.58,0,0,1-132.45-39.36c-1.56.09-3.11.15-4.65.15a69.32,69.32,0,0,1-15.7-1.76,64.11,64.11,0,0,1-14.48-5.25c-1-.52-2.06-1.07-3.07-1.65-.5-.29-1-.58-1.49-.89l-1.4-.89-.07,0A259.51,259.51,0,0,0,735.7,338.1,262.81,262.81,0,0,0,733.85,306.89ZM360.17,108.57a25,25,0,0,1,.62-3.12,261.67,261.67,0,0,0-90.94,75c1.6-.28,3.21-.51,4.81-.69l1.15-.13,1.15-.1c.26,0,.52-.05.78-.06l1-.07,1.24-.07c.4,0,.8,0,1.2-.05h.06c.39,0,.79,0,1.17,0h1.2l1.59,0c.52,0,1,0,1.56.06h.07c.37,0,.75,0,1.13.07.75,0,1.5.11,2.24.19l1,.12.75.1a244.58,244.58,0,0,1,69.78-56A31.39,31.39,0,0,1,360.17,108.57Zm226.9-5.22a26.47,26.47,0,0,1,1.45,6.52,32.43,32.43,0,0,1-1.12,12.28,244.11,244.11,0,0,1,43.27,28.62l.22,0a30.45,30.45,0,0,1,3.23-.17,32.81,32.81,0,0,1,12,2.3c.49.19,1,.4,1.42.62.29.13.58.28.87.44a.91.91,0,0,1,.22.11c.24.12.48.26.71.39a1.18,1.18,0,0,1,.19.11l.51.3.74.48a9.19,9.19,0,0,1,.81.58,3.62,3.62,0,0,1,.37.26l.69.55c.33.27.64.53.94.82a2.37,2.37,0,0,1,.28.27c.18.16.35.33.51.5l.14.14a28.46,28.46,0,0,1,3.83-5.16A258.55,258.55,0,0,0,587.07,103.35Z"/><path class="cls-1" d="M292.25,195.89q-4.53,5.75-8.66,11.72l.79-.1a10.11,10.11,0,0,1,3.85.25q3.88-5.5,8.08-10.75A31.89,31.89,0,0,0,292.25,195.89Z"/><path class="cls-1" d="M367.69,133.3a231.81,231.81,0,0,0-57,41.88q-3.74,3.73-7.26,7.6a39.71,39.71,0,0,1,3.68,1.68,228.9,228.9,0,0,1,63.7-48.38A27.42,27.42,0,0,1,367.69,133.3Z"/><path class="cls-4" d="M580.93,133.39a28.51,28.51,0,0,1-3.1,2.79A227.22,227.22,0,0,1,614,159.27a24,24,0,0,1,2.74-2.78A229.78,229.78,0,0,0,580.93,133.39Z"/><path class="cls-4" d="M682.41,430.59s0,0,0,.05C647,510.48,567,566.31,474.22,566.31A226,226,0,0,1,362.9,537.17a44.18,44.18,0,0,1-4.63,1.84A231.75,231.75,0,0,0,688.35,426.56,28.77,28.77,0,0,1,682.41,430.59Z"/><path class="cls-5" d="M427.46,526.74l1.54.35v0l7.69,1.7c4,.89,6.21,2.39,5.38,6.15a5.48,5.48,0,0,1-3,3.73,5.4,5.4,0,0,1,1.14,4.62c-.84,3.76-3.44,4.19-7.47,3.3l-9.24-2ZM430,538.27l-.92,4.14,3.38.75c1.93.42,2.7-.29,3-1.53s-.13-2.19-2.06-2.61Zm1.61-7.31-.91,4.14,3.38.74c1.92.43,2.69-.28,3-1.5s-.12-2.21-2.05-2.63Z"/><path class="cls-5" d="M454.57,531.7l5.36.52L465.44,551l-5.36-.52-1.1-3.74L451,546l-1.8,3.45-3.7-.36Zm-1.92,11.2,5.35.52-2-6.94Z"/><path class="cls-5" d="M472,533l8.21-.2c4.81-.12,7.88,2.3,8,6.64a6.2,6.2,0,0,1-3.23,6l3.77,5.37-5.74.14-3.13-4.45-2.6.07.11,4.52-4.93.12Zm5.19,10.3,1.67,0c2.91-.07,4.34-1.1,4.27-3.69s-1.54-3.55-4.45-3.48l-1.66,0Z"/><path class="cls-5" d="M493.33,532.14l1.57-.22v0l7.8-1.09c4.1-.58,6.65.06,7.19,3.87a5.46,5.46,0,0,1-1.49,4.54,5.39,5.39,0,0,1,2.68,3.93c.53,3.81-1.75,5.13-5.84,5.7l-9.37,1.32Zm5.34,2.5.59,4.2,3.42-.48c2-.28,2.43-1.21,2.25-2.44s-.88-2-2.84-1.76Zm1,7.42.59,4.19,3.42-.48c2-.27,2.43-1.21,2.25-2.47s-.88-2-2.84-1.72Z"/><path class="cls-5" d="M528,525.36l.8,3.15-8.71,2.23,1,4.08,6.9-1.77.81,3.15L521.89,538l1.05,4.1,8.72-2.23.8,3.15L519,546.45l-4.51-17.64Z"/><path class="cls-5" d="M533.17,523.77l7.69-2.9c4.5-1.7,8.2-.43,9.73,3.63a6.21,6.21,0,0,1-1.07,6.72l5.33,3.82-5.37,2-4.42-3.17-2.43.92,1.59,4.24-4.62,1.74Zm8.31,8,1.55-.58c2.73-1,3.74-2.47,2.82-4.9s-2.63-2.85-5.35-1.82l-1.56.59Z"/><path class="cls-5" d="M578.38,523.36c-3.94,2.33-7,2.22-9.29.69l1.49-2.9a6.76,6.76,0,0,0,6.38-.45c2-1.2,2.46-2.48,2-3.19s-1-.79-2.55-.49l-5.45,1c-3.15.6-4.72-.47-5.84-2.37-1.39-2.35-.56-6.11,4.05-8.83,3.41-2,6.38-1.83,8.57-.52l-1.21,2.7c-1.94-.57-3.63-.88-5.64.31-1.82,1.07-2.22,2.55-1.86,3.15s.9.86,2.58.53l4.41-.85c3.22-.64,5.73-.27,7,1.83C584.68,516.81,583.6,520.29,578.38,523.36Z"/><path class="cls-5" d="M584.72,497.08l4.52,5.93,5.85-4.47-4.53-5.93,3.93-3,11,14.46-3.92,3-4.55-5.95-5.84,4.46,4.54,6-3.93,3-11-14.46Z"/><path class="cls-5" d="M605.07,479.26c4.08-4,9.34-4.08,13.41.06s3.91,9.39-.17,13.4-9.38,4.12-13.44,0S601,483.29,605.07,479.26ZM616,490.42c1.89-1.86,1.55-4.8-1.15-7.55s-5.64-3.13-7.53-1.27-1.54,4.8,1.15,7.55S614.14,492.26,616,490.42Z"/><path class="cls-5" d="M629.78,480.19l-14.24-11.33,5.12-6.43c3-3.76,6.82-4.57,10.22-1.86s3.47,6.61.48,10.38l-2,2.56,3.54,2.82Zm-3-8.7,1-1.3c1.81-2.28,2-4-.09-5.66s-3.71-1.09-5.52,1.19l-1,1.3Z"/><path class="cls-1" d="M573.42,115.47a12.7,12.7,0,0,1-8,10.55,13.59,13.59,0,0,1-1.52.54,26.66,26.66,0,0,1-4.89,1,34.85,34.85,0,0,1-4.07.24q-80.59.1-161.2,0a33.47,33.47,0,0,1-4.23-.26,27.7,27.7,0,0,1-4-.76,16.93,16.93,0,0,1-2.31-.8,12.7,12.7,0,0,1-7.79-9,17.65,17.65,0,0,1-.25-6.42C376,104.27,382,99.25,389,99c2.26-.09,4.52,0,7.67,0q.6-4.39,1.47-8.55c6.9-32.71,27.06-53.51,60-62.91C454.44,16.11,456.48,8.59,464.53,3a17.4,17.4,0,0,1,20.55.77c6,4.73,10.2,13.41,4.95,23.73,21.1,5.66,38.42,16.76,49.92,35.65,4.84,7.94,8.69,16.35,10.07,26,.13,1,.24,1.91.32,2.87l-76.6,8L519.3,99h35.52a58.8,58.8,0,0,1,6.09.09c6.58.69,12,6,12.57,12.22A19.5,19.5,0,0,1,573.42,115.47Z"/><path d="M405,142.91h-6.85v-1.09a21.07,21.07,0,0,1,.81-3.54Z"/><path d="M550.32,142.91q-34.76,0-69.52,0l-5.46-4.3c6.26-1.47,64.68-1.78,74.93-.5C550.29,139.73,550.31,141.32,550.32,142.91Z"/><path class="cls-6" d="M464.18,189.37c-.77,1.89-1.63,4-2.56,6.32-3.56,8.84-8.38,21-13.25,34a43.24,43.24,0,0,0-15.67-4.52l-30.59-24.07c-2.45-1.93-4.19-4-4.15-7.57.21-16.87.12-33.75.15-50.63v-1.09a21.07,21.07,0,0,1,.81-3.54l6,4.63c2,1.49,3.83,3,5.7,4.42Q437.43,168.35,464.18,189.37Z"/><path class="cls-7" d="M550.4,197.67l-16.75-13.18a27.44,27.44,0,0,0-4.7-12.56c-8.75-12.73-24.2-13.74-28.76-13.74L480.8,143l-5.46-4.3c6.26-1.47,64.68-1.78,74.93-.5,0,1.58,0,3.17.05,4.76C550.52,160.57,550.36,178.43,550.4,197.67Z"/><path class="cls-8" d="M312.81,467.73c-2.57,2.64-5.21,5.22-7.82,7.87h-.09l-22.72,22.59-3.41,3.39L266.32,514l-.05,0q-6.5,6.36-13,12.64a118.13,118.13,0,0,1-10.79,9.21,22.36,22.36,0,0,1-6.62,3c-3.71,1.19-6.36-1.33-9.15-3.09-7-4.38-11-4.17-17.09,1.21q-38.24,33.79-76.43,67.62c-6.83,6-13.71,12-20.52,18.09q-9.63,8.57-19.18,17.24c-3.63,3.3-4.07,6-1.79,10.31a18,18,0,0,0,2.5,3.34q6.84,7.68,13.73,15.27c4.7,5.15,7.74,5.32,13,.84.66-.56,1.33-1.12,2-1.72l17.36-16.1q32.66-30.18,65.31-60.35c13.39-12.39,27-24.55,40-37.31,17.11-16.76,33.85-33.89,51.12-51.34l4.77-4.81,14.65-19.57,4.28-5.74c-2.3.36-4.62.74-6.94,1.13C313.16,471.83,312.93,469.78,312.81,467.73ZM118,627.54c4.94-5.88,76.72-70.42,80.6-72.47C193.26,561.36,121.86,625.55,118,627.54ZM304.34,489.91c-1.76.73-4.33-.13-4.94-1.67s.52-4.27,1.89-5a2.93,2.93,0,0,1,1.62-.24,5.74,5.74,0,0,1,2.08.62h0a3.43,3.43,0,0,1,1.66,1.59C307.28,486.78,306.1,489.16,304.34,489.91Z"/><circle class="cls-3" cx="3.34" cy="533.23" r="3.34"/><circle class="cls-1" cx="303.04" cy="486.34" r="3.34"/><path class="cls-3" d="M118,627.54s51.4-32.63,80.6-72.47"/><path class="cls-6" d="M756.93,128.19c-36.24.39-39.54,29.86-39.76,37.81,0,.5,0,.92,0,1.24,1.3-39.4-39.75-39.05-39.75-39.05,38.14-.35,41.78-39.76,41.78-39.76C721.78,128.84,756.93,128.19,756.93,128.19Z"/><path class="cls-7" d="M826.59,180.66c-24,.25-26.15,19.74-26.3,25,0,.33,0,.61,0,.82.86-26.06-26.29-25.82-26.29-25.82,25.23-.24,27.63-26.3,27.63-26.3C803.34,181.08,826.59,180.66,826.59,180.66Z"/><path class="cls-3" d="M801.56,167.29s2.38,10.63,12.36,12.86C813.92,180.15,801.66,179.62,801.56,167.29Z"/><path class="cls-3" d="M719.86,111.28s3.84,13.85,17.12,16.14C737,127.42,720.8,127.52,719.86,111.28Z"/></g></g></svg>