<svg xmlns="http://www.w3.org/2000/svg" xmlns:xlink="http://www.w3.org/1999/xlink" viewBox="0 0 863.75 719.97"><defs><style>.cls-1{fill:url(#linear-gradient);}.cls-2{fill:url(#linear-gradient-2);}.cls-3{fill:url(#linear-gradient-3);}.cls-4{fill:url(#linear-gradient-4);}.cls-5{fill:url(#linear-gradient-5);}.cls-6{fill:url(#linear-gradient-6);}.cls-7{fill:url(#linear-gradient-7);}.cls-8{fill:url(#linear-gradient-8);}.cls-9{fill:url(#linear-gradient-9);}.cls-10{fill:#f8ede7;}.cls-11{fill:url(#linear-gradient-11);}.cls-12{fill:url(#linear-gradient-12);}.cls-13{fill:url(#linear-gradient-13);}.cls-14{fill:#272220;}.cls-15{fill:url(#linear-gradient-14);}.cls-16{fill:url(#linear-gradient-15);}.cls-17{fill:url(#linear-gradient-16);}.cls-18{fill:url(#linear-gradient-17);}.cls-19{fill:url(#linear-gradient-18);}.cls-20{fill:url(#linear-gradient-19);}.cls-21{fill:url(#linear-gradient-20);}.cls-22{fill:url(#linear-gradient-21);}</style><linearGradient id="linear-gradient" x1="184.07" y1="295.48" x2="322.72" y2="295.48" gradientUnits="userSpaceOnUse"><stop offset="0" stop-color="#7b5736"/><stop offset="0.15" stop-color="#fce068"/><stop offset="0.48" stop-color="#c4922f"/><stop offset="0.73" stop-color="#fdc867"/><stop offset="1" stop-color="#603c10"/></linearGradient><linearGradient id="linear-gradient-2" x1="297.83" y1="317.6" x2="404.61" y2="317.6" xlink:href="#linear-gradient"/><linearGradient id="linear-gradient-3" x1="394.04" y1="308.25" x2="474.58" y2="308.25" xlink:href="#linear-gradient"/><linearGradient id="linear-gradient-4" x1="460.89" y1="269.31" x2="573.16" y2="269.31" xlink:href="#linear-gradient"/><linearGradient id="linear-gradient-5" x1="559.58" y1="267.25" x2="618.01" y2="267.25" xlink:href="#linear-gradient"/><linearGradient id="linear-gradient-6" x1="604.36" y1="252.77" x2="668.69" y2="252.77" xlink:href="#linear-gradient"/><linearGradient id="linear-gradient-7" x1="650.86" y1="247.5" x2="715.18" y2="247.5" xlink:href="#linear-gradient"/><linearGradient id="linear-gradient-8" x1="699.18" y1="272.24" x2="804.03" y2="272.24" xlink:href="#linear-gradient"/><linearGradient id="linear-gradient-9" x1="337.56" y1="440.46" x2="354.8" y2="440.46" xlink:href="#linear-gradient"/><linearGradient id="linear-gradient-11" x1="741.14" y1="405.73" x2="752.19" y2="405.73" xlink:href="#linear-gradient"/><linearGradient id="linear-gradient-12" x1="214.81" y1="298.94" x2="219.88" y2="298.94" xlink:href="#linear-gradient"/><linearGradient id="linear-gradient-13" x1="664.3" y1="181.5" x2="668.64" y2="181.5" xlink:href="#linear-gradient"/><linearGradient id="linear-gradient-14" x1="268.05" y1="375.05" x2="766.5" y2="375.05" xlink:href="#linear-gradient"/><linearGradient id="linear-gradient-15" x1="303.94" y1="170" x2="376.04" y2="170" xlink:href="#linear-gradient"/><linearGradient id="linear-gradient-16" x1="597.58" y1="156.57" x2="639.19" y2="156.57" xlink:href="#linear-gradient"/><linearGradient id="linear-gradient-17" x1="362.65" y1="533.18" x2="715.84" y2="533.18" xlink:href="#linear-gradient"/><linearGradient id="linear-gradient-18" x1="380.52" y1="68.39" x2="593.02" y2="68.39" xlink:href="#linear-gradient"/><linearGradient id="linear-gradient-19" x1="75.9" y1="610.22" x2="322.16" y2="610.22" xlink:href="#linear-gradient"/><linearGradient id="linear-gradient-20" x1="704.12" y1="136.78" x2="789.21" y2="136.78" xlink:href="#linear-gradient"/><linearGradient id="linear-gradient-21" x1="807.47" y1="193.05" x2="863.75" y2="193.05" xlink:href="#linear-gradient"/></defs><g id="Capa_2" data-name="Capa 2"><g id="Capa_1-2" data-name="Capa 1"><path class="cls-1" d="M320.06,330.92a214.35,214.35,0,0,1-17.22,24.55,13.78,13.78,0,0,1-4.86-8.74,23.58,23.58,0,0,1-.14-3.21c-8.67,11.35-20.42,23.81-35,31.4A62.69,62.69,0,0,1,244,381.33c-.89.15-1.8.27-2.7.37l-1.3.14-.73.07h0a75.73,75.73,0,0,1-9.65.27,51.86,51.86,0,0,1-18.09-3.68c-1.22-.49-2.39-1-3.52-1.63a39.14,39.14,0,0,1-11.42-9c-28.08-32.09-6.17-109.48,40.07-143.11a90,90,0,0,1,16-9.33c1.78-.8,3.59-1.53,5.4-2.2a75.16,75.16,0,0,1,17.13-4c1.19-.14,2.36-.25,3.48-.31a50.36,50.36,0,0,1,13.43.73,34.65,34.65,0,0,1,4.34,1.19c31.2,11,12.85,62.11-8.4,71.65a11,11,0,0,1-2.63.75c-7.6.86-14.16-9-12-10.18,26.08-13.78,28.4-47,14.42-50.71a10.92,10.92,0,0,0-4.12-.27l-.85.1a49.14,49.14,0,0,0-16.64,5.5c-19,10.15-34.59,32.12-43.89,55.65q-1.25,3.11-2.32,6.25a.24.24,0,0,0,0,.08q-2.87,9.19-5.07,18.66a103.08,103.08,0,0,0-2.08,22.09c.36,15.69,5.33,28.28,16.05,33.36a26.44,26.44,0,0,0,10.47,2.4,33.87,33.87,0,0,0,4-.08l1.65-.15c26.49-3,44.82-26.41,57.52-44.12v0h0c1.63-4.95,3.54-10,5.5-14.79a15,15,0,0,1,12.91,7.66A15.92,15.92,0,0,1,320.06,330.92Z"/><path class="cls-2" d="M400.41,307.72c-1.56.17-3,1.24-4.61,3.23l0,.05c-3.83,5.33-7.63,10.61-11.11,15.23L383,328.48A118.9,118.9,0,0,1,375,338a19.11,19.11,0,0,1-3.36,2.91,3.54,3.54,0,0,1-1.36.57c-1.39.15-1.34-3.05-.44-8.06.69-3.8,1.88-8.64,3.31-13.84,4-14.46,9.93-31.67,12.42-36.9a5.4,5.4,0,0,0,.57-3.4,5.91,5.91,0,0,0-2.53-3.61,17.61,17.61,0,0,0-10.71-2.87c-2.24.25-4.12,1.6-5.4,4.24-2.2,4.55-7,14.15-11.42,25.06-7.45,17.73-15.9,33.17-23.15,40.28-2.48,2.43-4.81,3.87-6.92,4.12-3.29.37-4.44-2.7-4.27-7.61.21-6.19,2.52-15.32,5.33-24.22,1.53-4.82,3.2-9.57,4.78-13.75,2.15-5.74,4.11-10.42,5.22-12.74,3.48-7.18-8-10.42-12.67-9.88-2.24.26-4.13,1.61-5.41,4.24-.94,1.9-2.33,4.76-4,8.27-1.46,3.11-3.1,6.73-4.79,10.62-.76,1.79-1.54,3.63-2.31,5.52-2,4.79-3.87,9.84-5.5,14.79h0v0c-2.62,8-4.48,15.72-4.58,21.74h0a23.58,23.58,0,0,0,.14,3.21,13.78,13.78,0,0,0,4.86,8.74,24.46,24.46,0,0,0,4.65,3.2,33.22,33.22,0,0,0,11.6,3.7,12.33,12.33,0,0,0,2.4,0c8.49-1,17.19-10.11,24.91-21.85,1.09,9.61,14.43,17.38,23.59,16.34,1.6-.19,3.9-1.89,6.66-4.72.9-.92,1.86-2,2.86-3.13,2.05-2.38,4.28-5.21,6.62-8.37.44-.58.86-1.17,1.29-1.76,2.3-3.14,4.67-6.57,7.05-10.14,3.09-4.65,6.2-9.53,9.19-14.42C406,310.71,403.77,307.34,400.41,307.72Z"/><path class="cls-3" d="M470.38,299.77c-1.52.18-2.93,1.19-4.46,3.05l-.14.19c-8.43,11.75-16.74,23.21-25.62,28.51a23.12,23.12,0,0,1-3.81,1.87,18,18,0,0,1-4.37,1.08c-11.18,1.27-13.83-6.12-14.31-10.37-2-17.89,13.43-45.23,23.49-46.36,3-.34,4.56,1.43,5.09,4,.93,4.51-1.23,11.52-4.52,14.51l-.25.21a1.47,1.47,0,0,0-.41,2.07,6.92,6.92,0,0,0,3.46,2.64,6.25,6.25,0,0,0,3,.49,4.22,4.22,0,0,0,1.73-.64c8.07-5.63,10.46-19.35,4.22-27.94a16.73,16.73,0,0,0-3.15-3.26c-3.88-3.07-9.56-4.76-17.28-3.88-17.68,2-32.39,25.45-37.26,45a46.37,46.37,0,0,0-1.54,16c.06.58.14,1.17.24,1.8.83,5.14,3,11.5,8.3,16.06h0c4.83,4.16,12.3,6.8,23.79,5.62l.66-.06a32.42,32.42,0,0,0,13.38-4.88c1.13-.7,2.26-1.46,3.36-2.28,6.06-4.51,11.7-10.75,17-17.8,4.46-6,8.69-12.49,12.68-19C475.93,302.77,473.73,299.4,470.38,299.77Z"/><path class="cls-4" d="M569,288.6a4,4,0,0,0-.59.1,8,8,0,0,0-4,3.13,1.66,1.66,0,0,1-.16.21h0l0,0h0c-7.73,10.8-15.37,21.34-20.5,26.67-.36.37-.69.71-1,1-1.6,1.54-2.89,2.46-3.8,2.57s-1.39-.29-1.52-1.42a14.21,14.21,0,0,1,1-4.58c1.57-5,4.87-13,8.1-21.15,3.36-8.5,6.64-17.18,7.82-22.8a14.59,14.59,0,0,0,.43-4.37,14.12,14.12,0,0,0-1.34-4.63,16.68,16.68,0,0,0-11.64-9.13,13,13,0,0,0-4-.17c-8,.91-23.19,17.16-35.61,33.8-1.41,1.9-2.8,3.81-4.12,5.69-1,1.45-2,2.9-2.95,4.31-1.52,2.25-2.94,4.46-4.24,6.56-.56.92-1.11,1.82-1.62,2.71q.72-2.7,1.57-5.61c.79-2.77,1.66-5.67,2.58-8.68.54-1.74,1.09-3.5,1.66-5.3.44-1.39.89-2.79,1.35-4.21,5.47-16.92,12.12-35.7,17.65-50.9,6.09-16.73,10.81-29.12,11.09-29.92,2.44-6.38-7.11-8.69-12-8.14s-7,2.15-9.4,7c0,0-2.86,6.84-7.1,17.39-5,12.39-11.89,29.91-18.27,47.46q-.44,1.16-.84,2.31c-.43,1.18-.85,2.36-1.27,3.54-1.06,3-2.1,5.95-3.12,8.87q-1.31,3.78-2.52,7.46c-.22.64-.43,1.28-.64,1.93-1.43,4.36-2.75,8.56-3.91,12.5a173.34,173.34,0,0,0-4.22,16.92,50.08,50.08,0,0,0-.75,5.71,18,18,0,0,0,0,3.24,13.23,13.23,0,0,0,3.59,7.49,12.39,12.39,0,0,0,1.38,1.33,23.17,23.17,0,0,0,3.91,2.8,34,34,0,0,0,8.61,3.45,25.54,25.54,0,0,0,2.62.54c2.24-.25,3.05-1,3-3.29a11.14,11.14,0,0,1,.7-2.93,77.7,77.7,0,0,1,3.48-8c2.6-5.32,6.23-11.94,10.26-18.77,3.49-5.91,7.29-12,11-17.5,7.81-11.6,15.29-20.83,18.86-21.24,4.68-.52-3,14.76-8.85,29.09-3.38,8.24-6.17,16.16-5.67,20.56,1.32,11.63,19.26,16.16,24.18,15.6,2.22-.25,5.55-3.05,9.47-7.48,1.1-1.23,2.23-2.58,3.4-4,2.72-3.39,5.64-7.35,8.63-11.65v0c2.88-4.14,5.83-8.58,8.71-13.13,1.32-2.07,2.62-4.17,3.91-6.27C574.51,291.59,572.31,288.21,569,288.6Z"/><path class="cls-5" d="M601.23,201.84c-3.13.35-5.68,1.77-6.92,4.85-2.62,6.87-6.4,23.38-6.85,25.46-1.06,4.65,8.17,8.13,12.86,7.6a3.06,3.06,0,0,0,2.56-1.42c2.06-4.27,10.31-17.2,14.06-24.34.25-.47.47-.92.68-1.34a3.24,3.24,0,0,0,.38-1.37h0C618.27,206.48,608.36,201,601.23,201.84Zm12.44,81.68c-1.5.17-2.89,1.15-4.4,3h0l-.22.26c-5,6.94-9.9,13.78-14.16,19.22a93.9,93.9,0,0,1-7.24,8.45c-1.74,1.72-3.15,2.75-4.11,2.85a.72.72,0,0,1-.36,0c-2.68-1.1,2.52-20.61,7.83-37.15q.81-2.54,1.62-4.94c2.5-7.51,4.85-13.84,6.2-16.66,3.48-7.18-8-10.41-12.67-9.88-2.24.25-4.12,1.6-5.41,4.24-.67,1.36-1.58,3.22-2.65,5.45-.85,1.77-1.79,3.78-2.78,6A274.53,274.53,0,0,0,564.19,292h0l0,0c-2.74,8.35-4.65,16.44-4.58,22.56v0c0,.82.06,1.61.14,2.36.82,7.19,7.74,11.69,14.06,14a35.66,35.66,0,0,0,4.12,1.2,18.28,18.28,0,0,0,5.34.52c2-.22,5-2.73,8.54-6.75a175.46,175.46,0,0,0,12.59-16.46h0c4.17-6,8.46-12.66,12.53-19.32C619.22,286.51,617,283.14,613.67,283.52Z"/><path class="cls-6" d="M668.64,183.71c-.29-2.06-2.08-3.51-4.34-4.42a17.71,17.71,0,0,0-8-1.13,15.09,15.09,0,0,0-3.51.74,8.26,8.26,0,0,0-3.5,2.42,17.63,17.63,0,0,0-2.39,3.79s-26.43,63.06-37.61,101.38h0c-2.84,9.75-4.7,17.89-4.89,23h0a16.13,16.13,0,0,0,.07,2.47c1.31,11.63,20.38,16,25.29,15.47,2-.22,4.94-2.73,8.55-6.76l.05-.05a175.63,175.63,0,0,0,12.53-16.4c4.17-6,8.47-12.67,12.54-19.33,2.3-3.66.11-7-3.25-6.65-1.48.17-2.89,1.16-4.39,3a2.75,2.75,0,0,0-.22.26c-8.18,11.42-16.26,22.58-21.41,27.67-1.75,1.72-3.14,2.75-4.11,2.85a.6.6,0,0,1-.74-.6c-1.46-12.87,25.3-87.62,35.31-115,.59-1.62,1.13-3.07,1.59-4.33,1.23-3.37,2-5.42,2.11-5.72A5.09,5.09,0,0,0,668.64,183.71Z"/><path class="cls-7" d="M681.23,279.57v0c3.66-12.73,8.72-28.21,13.79-43.08l1.75-5.09c1-2.92,2-5.8,3-8.61s2-5.74,3-8.49c.61-1.69,1.2-3.36,1.77-5,2.08-5.83,4-11.07,5.56-15.42,2.74-7.54,4.54-12.39,4.72-12.87,2.45-6.39-7.1-8.7-12-8.14-3.45.39-5.5,1.28-7.25,3.43a19.6,19.6,0,0,0-2.16,3.52s-1.53,3.67-4,9.77c-.58,1.43-1.22,3-1.9,4.68h0c-.92,2.27-1.93,4.75-3,7.41-1,2.46-2,5.08-3.1,7.82-.57,1.47-1.16,2.95-1.76,4.48-5.64,14.46-12.11,31.56-17.46,47.29-2.41,7-4.59,13.81-6.37,19.93-2.86,9.76-4.72,17.91-4.9,23a16,16,0,0,0,.07,2.46c.63,5.55,5.29,9.45,10.54,12,5.75,2.74,12.19,3.81,14.76,3.51,2.15-.24,5.55-3.25,9.62-8l0,0a202.53,202.53,0,0,0,13.3-17.83c3.59-5.3,7.24-11,10.73-16.7,2.29-3.65.1-7-3.25-6.65-1.47.17-2.87,1.14-4.34,2.92l-.27.32c-7.27,10.15-14.46,20.09-19.59,25.74-2.6,2.87-4.66,4.64-5.93,4.78a.59.59,0,0,1-.75-.59c-.25-2.18.32-6.14,1.47-11.34C678.21,290.47,679.57,285.31,681.23,279.57Z"/><path class="cls-8" d="M799.88,262.39c-1.57.17-3,1.25-4.62,3.24-11,15.28-21.71,30.09-25.52,30.52-5.36.6,10.72-49.22,15.29-58.79,3.49-7.2-8-10.42-12.66-9.89-2.24.25-4.13,1.6-5.41,4.24-.92,1.91-2.2,4.55-3.86,7.9-2.72-6-8.4-10.13-19.57-8.87a32.87,32.87,0,0,0-8.63,2.2,40.22,40.22,0,0,0-11.61,7.27c-1.1,1-2.15,2-3.18,3.06a57.07,57.07,0,0,0-5.05,6,71.34,71.34,0,0,0-4.5,6.92,1,1,0,0,1-.08.14q-1.29,2.26-2.43,4.6h0a88.93,88.93,0,0,0-5.73,14.9,75.29,75.29,0,0,0-3.14,20.43,41.94,41.94,0,0,0,.27,4.87,16.77,16.77,0,0,0,8.27,12.52h0a23.34,23.34,0,0,0,14.56,3.21,12.9,12.9,0,0,0,3.47-.93,21.3,21.3,0,0,0,3.74-2,42.57,42.57,0,0,0,6.85-5.85h0a75.4,75.4,0,0,0,5.4-6.22h0c1.22-1.54,2.42-3.16,3.59-4.83h0l.62-.9c1,7.83,9.16,12.39,15.84,14.34h0a22.34,22.34,0,0,0,7.66,1.09c5.81-.65,20.64-21.58,33.66-42.53C805.42,265.38,803,262,799.88,262.39Zm-49.12,7h0a94.33,94.33,0,0,1-8.56,16.78c-1.07,1.65-2.18,3.22-3.32,4.68a43.82,43.82,0,0,1-5.45,5.92,18.73,18.73,0,0,1-6.89,4.15,10.65,10.65,0,0,1-1.73.36c-1.43.16-2.42-.71-3-2.36a8.11,8.11,0,0,1-.38-1.36s0,0,0,0,0,0,0,0v0h0a0,0,0,0,1,0,0,21.23,21.23,0,0,1-.3-3.62h0a49.73,49.73,0,0,1,.88-8.62h0a87.94,87.94,0,0,1,3.34-12.74q.56-1.61,1.17-3.21h0c.82-2.14,1.71-4.27,2.69-6.32.81-1.7,1.67-3.36,2.57-4.94,2.8-4.87,6-9.06,9.62-11.79a15.39,15.39,0,0,1,7.61-3.32C757.46,241.84,756.3,255.17,750.76,269.35Z"/><path class="cls-9" d="M354.8,415.48c-.08.29-.16.58-.25.88s-.21.72-.31,1.08c-.22.75-.46,1.52-.71,2.31s-.43,1.35-.66,2.05c-.6,1.83-1.26,3.79-2,5.89-.13.38-.27.77-.4,1.16-1.2,3.39-2.56,7.14-4.08,11.34-1.43,3.94-2.95,8.1-4.45,12.36-.3.85-.59,1.69-.89,2.53-.45,1.3-.9,2.61-1.34,3.91-.26.76-.52,1.52-.77,2.28l-.31,1c-.24.71-.47,1.43-.71,2.14-.11.36-.23.72-.35,1.08-.32-13,4.48-30.88,13.61-44.91C352.32,418.78,353.53,417.09,354.8,415.48Z"/><path class="cls-9" d="M351.18,420.53c1.14-1.75,2.35-3.44,3.62-5-.08.29-.16.58-.25.88s-.21.72-.31,1.08c-.22.75-.46,1.52-.71,2.31s-.43,1.35-.66,2.05c-.6,1.83-1.26,3.79-2,5.89-.13.38-.26.77-.4,1.16-1.2,3.39-2.56,7.14-4.08,11.34-1.43,3.94-2.95,8.1-4.45,12.36-.3.85-.6,1.69-.89,2.53-.45,1.3-.9,2.61-1.34,3.91-.26.76-.52,1.52-.77,2.28l-.31,1c-.24.71-.47,1.43-.71,2.14-.11.36-.23.72-.35,1.08C337.25,452.48,342.05,434.56,351.18,420.53Z"/><path class="cls-10" d="M330.28,504.7c-2.65.31-5.37.7-8.12,1.13-2.46.38-5,.79-7.43,1.21-.34-2.19-.59-4.38-.72-6.57a59.68,59.68,0,0,1,.53-12.61c4-29.23,26.45-75.24,25.28-85.55s-11.4-18.46-21.16-17.36c-10,1.15-27.85,20.66-43.54,41.63,2.49-7.9,4.31-14.31,4-17.38-.89-7.74-6.87-14.27-13.92-16.57h0a16.89,16.89,0,0,0-7.22-.79c-3.18.35-7.29,2.68-11.9,6.35h0l-.14.11c-1.19.95-2.39,2-3.64,3.07-2.87,2.56-5.88,5.54-9,8.81-4.82,5.13-9.77,11-14.56,17-6.17,7.84-12,16-16.88,23.56-2.69,4.18-5.07,8.16-7,11.73,1.43-6,3.1-12.17,4.82-18h0c4.47-15.2,9.33-28.47,11.66-33.22,4.34-9-9.93-13-15.79-12.31-2.75.3-5.06,1.93-6.65,5.11h0a.62.62,0,0,0-.1.16c-2,4-5.68,11.62-9.7,20.78h0c-8.47,19.28-18.34,45.46-16.71,59.82,1.36,12,16.46,18.16,25.07,19.44,2.79-.31,3.8-1.28,3.76-4.09s3.1-9.65,7.73-18.57c2.5-4.82,5.48-10.23,8.74-15.79,4.67-8.05,9.89-16.47,15-24.09a211.07,211.07,0,0,1,13.5-18.26h0c3.45-4.05,6.45-6.92,8.7-8.06a4.64,4.64,0,0,1,1.56-.51c2.53-.28,2.17,3.15.34,8.59-1.43,4.25-3.74,9.72-6.26,15.58-3.59,8.36-7.57,17.53-10,25.18-1.6,5.08-2.51,9.49-2.17,12.54,1.08,9.51,9.64,15.37,16.59,18.14a23.68,23.68,0,0,0,7.75,1.92,4.1,4.1,0,0,0,.52,0c4.73-.54,5.31-2.86,4.93-6.21a32.48,32.48,0,0,1,.32-8.3,71.57,71.57,0,0,1,1.75-8.29q1.33-2.6,2.83-5.35c.8-1.47,1.63-3,2.48-4.51,13.82-24.71,34.33-55.33,41.66-56.16,8.65-1-14.47,34.11-19.48,64.58A133.44,133.44,0,0,0,286,500.13c.14,2.83.39,5.56.74,8.21.21,1.67.47,3.31.77,4.89-2.79.67-5.61,1.37-8.42,2.08q-9.21,2.3-18.6,4.79-10.14,2.67-20.53,5.5l-14.58,3.95c-47.76,12.92-100.15,26.64-160.82,33.53-22,2.51-42.36-.27-57.65-13.2-1.55-1.24-2.74-1.66-3.85-1.54-4.19.47-2.95,11.34-2.64,14.12,3.48,30.66,32.81,42.84,60.39,39.72,66.55-7.56,126.07-31.48,179.46-51.8q7.08-2.7,14-5.3c6.66-2.48,13.24-4.89,19.72-7.14l3.61-1.27q7.43-2.56,14.66-4.85l1-.32c.53,1.15,1.1,2.27,1.7,3.37s1.21,2.16,1.85,3.18a51.16,51.16,0,0,0,20.62,19.08,54.09,54.09,0,0,0,23.87,5.66,59.26,59.26,0,0,0,6.77-.29c.4,0,.79-.06,1.19-.11C389.64,557.81,386.56,498.32,330.28,504.7Zm18.38,35.18c-13.92,1.58-23.47-5.52-29-16.46a200.63,200.63,0,0,1,21.82-4.18C365.2,516.55,363.44,538.2,348.66,539.88Z"/><path class="cls-10" d="M393.61,354.68c-4.07,6.88-7.8,13.42-9.19,16.36-2.39,4.79,5.95,10.42,10.19,9.94a4.13,4.13,0,0,0,1.74-.65c2.4-2,10.31-10.47,17.29-18.38A37.57,37.57,0,0,1,393.61,354.68Zm44.64,75.68c-1.48.18-2.86,1.13-4.33,2.91h0l-.26.31c-10.95,15.28-21.72,30.09-25.52,30.52-5.36.62,10.72-49.21,15.29-58.79a5,5,0,0,0,.13-4.67c-2-3.91-9.28-5.61-12.8-5.21-2.23.25-4.12,1.6-5.41,4.24-.9,1.92-2.2,4.54-3.85,7.9-2.72-6-8.39-10.14-19.57-8.87-10.92,1.24-20,7.8-27.11,16.76-1.27,1.61-2.48,3.3-3.62,5-9.13,14-13.92,32-13.6,44.92,0,.17,0,.33,0,.5,0,1.11.12,2.18.23,3.21.72,6.3,4.76,10.86,9.91,13.43A23.6,23.6,0,0,0,357.8,485a21.06,21.06,0,0,0,2.87-.13c7.38-.84,16.1-9.75,23.68-20.81.9,6.87,7.24,11.22,13.28,13.51,4.17,1.57,8.19,2.17,10.2,1.95,4.25-.49,13.3-11.77,22.94-26h0c3.55-5.25,7.21-10.89,10.71-16.54C443.79,433.37,441.38,430,438.25,430.36Zm-75.06,38.86c-10.73,1.22,3.15-56,24.16-58.44C404.78,408.8,381.51,467.15,363.19,469.22Z"/><path class="cls-10" d="M504,384.87c-2.24.25-4.12,1.6-5.41,4.24-.91,1.91-2.15,5-3.56,8.55-2.52-6.28-8.24-10.83-19.87-9.51-20.9,2.37-35.24,24.31-41.22,45.15l0,0h0c1.47-1.78,2.86-2.73,4.33-2.91,3.13-.35,5.54,3,3.24,6.66-3.5,5.65-7.15,11.29-10.71,16.54h0a44.36,44.36,0,0,0,.27,5c1.27,11.18,13,16.87,22.84,15.75,7.16-.81,15.49-9.23,22.91-19.58-10.28,33.09-23.46,62.66-41.34,64.69-8.5,1-16.87-3.07-20.29-9.24-.85-1.49-1.82-2.07-2.93-1.94-1.57.18-3.13,2.4-2.55,5.5,1.53,7.53,14.1,26.48,36.22,24,24.37-2.76,40-38.72,50.56-77.28,5.76-21,13.42-51.33,20.17-65.68C520.11,387.56,508.66,384.34,504,384.87Zm-47.55,73.78c-10.73,1.21,3.14-56.06,24.15-58.44C498,398.23,474.73,456.56,456.41,458.65Z"/><path class="cls-10" d="M567.86,415.25c-1.57.17-3,1.25-4.62,3.24l0,.06h0c-10.93,15.25-21.67,30-25.47,30.45-5.36.6,10.72-49.22,15.29-58.79,3.49-7.19-8-10.42-12.66-9.89a6.23,6.23,0,0,0-2.71,1,7.94,7.94,0,0,0-2.7,3.27c-5,10.07-23,47.21-21,64.19.48,4.24,3.09,7.55,6.44,10,5.84,4.28,13.95,6,17.08,5.66,4.45-.51,14.34-12.94,24.47-28.14,3.09-4.63,6.21-9.52,9.19-14.4C573.4,418.24,571.2,414.87,567.86,415.25Zm-12.45-81.69c-3.12.36-5.68,1.78-6.92,4.87-2.61,6.86-6.4,23.36-6.84,25.46-1.06,4.64,8.16,8.12,12.86,7.59a3.06,3.06,0,0,0,2.55-1.43c2.2-4.55,11.44-18.95,14.75-25.66C574.41,339.33,563.24,332.68,555.41,333.56Z"/><path class="cls-10" d="M637.82,407.31c-1.47.17-2.86,1.14-4.34,2.91-.09.11-.18.21-.27.33-6.53,9.11-13,18.06-19.72,24.08-4.54,4.08-9.21,6.82-14.07,7.37-11.17,1.27-13.83-6.12-14.31-10.37-2-17.88,13.43-45.22,23.49-46.36,8.27-.94,5.7,14.29.32,18.75-2.5,1.87,2.67,5.58,6,5.2a4.18,4.18,0,0,0,1.31-.4c.15-.08.3-.16.42-.24,6.07-4.24,8.92-13.05,7.31-20.81-1.79-8.6-9.06-15.91-23.51-14.26-17.69,2-32.41,25.46-37.29,45a47.06,47.06,0,0,0-1.53,16c.07.57.15,1.17.25,1.78,1.61,9.92,8.12,24.44,32.75,21.65,7.78-.89,14.94-5.08,21.57-11.19a108,108,0,0,0,14.11-16.45c3.75-5.21,7.32-10.78,10.73-16.35C643.37,410.31,641.17,406.93,637.82,407.31Z"/><path class="cls-11" d="M748.68,412.38c-2.14,3.45-4.72,7.52-7.54,11.79a256.27,256.27,0,0,0,6.33-36.89,20.88,20.88,0,0,1,2.11,3.1A21.44,21.44,0,0,1,748.68,412.38Z"/><path class="cls-10" d="M731.89,396.72a4.84,4.84,0,0,0-.85,0,6,6,0,0,0-3.53,2h0a15.29,15.29,0,0,0-1.09,1.23c-10.94,15.28-21.72,30.09-25.52,30.52-5.36.61,10.72-49.22,15.3-58.8,3.48-7.18-8-10.41-12.67-9.87-2.24.25-4.13,1.6-5.41,4.23-.91,1.92-2.2,4.55-3.86,7.91-2.72-6-8.4-10.14-19.57-8.87-20.9,2.37-35.23,24.3-41.21,45.13a75.5,75.5,0,0,0-3.14,20.09,43.08,43.08,0,0,0,.27,5.21c1.27,11.18,13,16.86,22.84,15.75,7.38-.83,16.1-9.75,23.67-20.8,1.55,11.6,18.58,16,23.5,15.45,4.19-.47,13.1-11.52,22.63-25.52,2.07-3,4.17-6.22,6.25-9.46,1.61-2.49,3.21-5,4.78-7.55C736.37,400.06,734.58,397,731.89,396.72ZM656,435.59c-10.74,1.22,3.14-56,24.15-58.44C697.57,375.17,674.3,433.51,656,435.59Z"/><path class="cls-12" d="M219.88,289.61q-2.87,9.19-5.07,18.66A138.6,138.6,0,0,1,219.88,289.61Z"/><path class="cls-13" d="M668.64,183.71q-2.13-2.25-4.34-4.42C666.56,180.2,668.35,181.65,668.64,183.71Z"/><path class="cls-14" d="M15,578.86S24.36,606.67,89.32,589C89.32,589,28.78,597.57,15,578.86Z"/><path class="cls-15" d="M764.52,328.36a45.85,45.85,0,0,1-10.28-2.4h0a47.33,47.33,0,0,1-8-3.71l-.42.39c0,.3.09.6.13.9h0a259.14,259.14,0,0,1,2.81,38.22q0,12.92-1.25,25.52a256.27,256.27,0,0,1-6.33,36.89c-28,113.31-130.55,197.56-252.4,197.56A258.36,258.36,0,0,1,347,579.62c-1.67.1-3.34.16-5,.16a73.7,73.7,0,0,1-16.8-1.89,68.13,68.13,0,0,1-15.49-5.61c-1.12-.55-2.21-1.14-3.29-1.77-.53-.3-1.06-.62-1.6-1s-1-.62-1.49-.95l-.07-.05A277.67,277.67,0,0,0,766.5,361.76,280.42,280.42,0,0,0,764.52,328.36ZM364.69,116.17a26.3,26.3,0,0,1,.66-3.34,277,277,0,0,0-73,52.52,282.3,282.3,0,0,0-24.28,27.7c1.71-.3,3.44-.55,5.15-.75l1.23-.13,1.23-.11c.27,0,.55-.05.83-.06l1.05-.08,1.33-.07c.42,0,.85,0,1.28-.06h.07l1.25,0h1.28c.57,0,1.14,0,1.7,0s1.12,0,1.68.06h.06l1.21.08q1.22.08,2.4.21l1.09.13.81.1a261.72,261.72,0,0,1,74.65-59.91A33.7,33.7,0,0,1,364.69,116.17Zm242.78-5.59a28.27,28.27,0,0,1,1.55,7,34.62,34.62,0,0,1-1.2,13.14,261.38,261.38,0,0,1,46.3,30.62l.24,0a31.82,31.82,0,0,1,3.45-.18,35.06,35.06,0,0,1,12.89,2.46c.51.21,1,.42,1.51.66.31.14.63.31.94.47a1,1,0,0,1,.23.12c.26.13.51.27.76.42l.2.11c.19.11.37.21.54.33l.8.51c.3.2.59.4.87.62a4.73,4.73,0,0,1,.39.28l.74.58c.35.29.68.58,1,.88.11.09.21.19.31.29a6.88,6.88,0,0,1,.54.54l.15.14a30.37,30.37,0,0,1,4.11-5.52A276.93,276.93,0,0,0,607.47,110.58Z"/><path class="cls-16" d="M372.73,142.63a248.41,248.41,0,0,0-61,44.81c-2.66,2.66-5.24,5.37-7.77,8.13,1.37.54,2.68,1.15,3.95,1.8A244.78,244.78,0,0,1,376,145.6,28.48,28.48,0,0,1,372.73,142.63Z"/><path class="cls-17" d="M600.9,142.72a29.59,29.59,0,0,1-3.32,3,243.45,243.45,0,0,1,38.68,24.71,26.66,26.66,0,0,1,2.93-3A247.42,247.42,0,0,0,600.9,142.72Z"/><path class="cls-18" d="M709.49,460.73a.08.08,0,0,0,0,0C671.61,546.2,586,606,486.72,606a241.85,241.85,0,0,1-119.11-31.19,45.32,45.32,0,0,1-5,2A248,248,0,0,0,715.84,456.41,31,31,0,0,1,709.49,460.73Z"/><path class="cls-19" d="M592.86,123.55a13.6,13.6,0,0,1-8.58,11.29,15.45,15.45,0,0,1-1.62.58,29.49,29.49,0,0,1-5.24,1.06,37.44,37.44,0,0,1-4.35.25q-86.24.11-172.48,0a36.34,36.34,0,0,1-4.53-.27,28.64,28.64,0,0,1-4.28-.82,16.69,16.69,0,0,1-2.47-.86,13.58,13.58,0,0,1-8.34-9.59,18.77,18.77,0,0,1-.26-6.87c.92-6.75,7.29-12.12,14.85-12.42,2.41-.1,4.83,0,8.21,0,.42-3.13,1-6.18,1.57-9.14,7.39-35,29-57.25,64.24-67.32-4-12.18-1.84-20.23,6.78-26.22a18.6,18.6,0,0,1,22,.83c6.46,5.06,10.91,14.34,5.3,25.38,22.57,6.06,41.11,17.94,53.41,38.14,5.18,8.51,9.29,17.5,10.77,27.86.14,1,.26,2,.35,3.08l-82,8.6L535,105.9l38,0a61.21,61.21,0,0,1,6.5.11c7,.73,12.83,6.43,13.46,13.07A20.26,20.26,0,0,1,592.86,123.55Z"/><path class="cls-10" d="M476,202.62c-.83,2-1.75,4.29-2.74,6.77-3.81,9.45-9,22.49-14.18,36.38a46.23,46.23,0,0,0-16.77-4.83l-32.72-25.76c-2.62-2.06-4.49-4.23-4.44-8.1.22-18.05.12-36.11.16-54.17v-1.17a22.42,22.42,0,0,1,.86-3.79l6.46,5c2.09,1.6,4.1,3.16,6.11,4.73Q447.36,180.13,476,202.62Z"/><path class="cls-10" d="M568.24,211.5l-17.93-14.1a29.36,29.36,0,0,0-5-13.44c-9.37-13.61-25.91-14.7-30.78-14.7L493.76,153q-2.91-2.31-5.84-4.6c6.69-1.58,69.21-1.91,80.17-.54,0,1.69,0,3.39.06,5.09C568.36,171.81,568.19,190.92,568.24,211.5Z"/><path class="cls-20" d="M314,500.47c-2.74,2.82-5.57,5.58-8.36,8.42h-.1l-24.31,24.17-3.65,3.62-13.32,13.25,0,0q-7,6.81-13.94,13.53a125.89,125.89,0,0,1-11.55,9.85,23.84,23.84,0,0,1-7.08,3.22c-4,1.28-6.81-1.42-9.79-3.3-7.5-4.69-11.75-4.46-18.29,1.29q-40.9,36.16-81.78,72.35c-7.31,6.48-14.67,12.89-22,19.36q-10.31,9.16-20.53,18.45c-3.88,3.53-4.35,6.41-1.91,11a19.21,19.21,0,0,0,2.67,3.57q7.32,8.22,14.69,16.34c5,5.51,8.29,5.69,13.94.9.7-.6,1.42-1.2,2.11-1.84l18.58-17.23q34.94-32.29,69.88-64.57c14.33-13.26,28.9-26.27,42.83-39.92,18.31-17.94,36.22-36.26,54.7-54.94l5.1-5.14L317.58,512l4.58-6.14c-2.46.38-5,.79-7.43,1.21C314.39,504.85,314.14,502.66,314,500.47Zm-208.44,171c5.29-6.29,82.09-75.35,86.24-77.54C186.1,600.65,109.7,669.33,105.57,671.46ZM305,524.2c-1.88.78-4.63-.14-5.28-1.79s.55-4.57,2-5.34a3.13,3.13,0,0,1,1.73-.25,6.16,6.16,0,0,1,2.23.66h0a3.67,3.67,0,0,1,1.77,1.7C308.1,520.85,306.84,523.4,305,524.2Z"/><circle class="cls-14" cx="303.31" cy="520.37" r="4.49"/><path class="cls-14" d="M105.57,671.46s55-34.92,86.24-77.54"/><path class="cls-21" d="M789.21,137.17c-38.77.41-42.3,31.94-42.54,40.45,0,.54,0,1,0,1.32,1.39-42.16-42.53-41.77-42.53-41.77,40.81-.39,44.7-42.55,44.7-42.55C751.6,137.85,789.21,137.17,789.21,137.17Z"/><path class="cls-22" d="M863.75,193.3c-25.64.28-28,21.13-28.13,26.76,0,.35,0,.65,0,.87.92-27.88-28.13-27.63-28.13-27.63,27-.25,29.57-28.14,29.57-28.14C838.88,193.76,863.75,193.3,863.75,193.3Z"/><path class="cls-14" d="M837,179s2.55,11.37,13.22,13.76C850.19,192.76,837.08,192.19,837,179Z"/><path class="cls-14" d="M749.55,119.07s4.11,14.82,18.32,17.27C767.87,136.34,750.56,136.44,749.55,119.07Z"/><path class="cls-10" d="M449.33,560.33l1.52.34v0l7.53,1.66c4,.87,6.09,2.33,5.27,6a5.33,5.33,0,0,1-2.92,3.65,5.31,5.31,0,0,1,1.12,4.53c-.82,3.68-3.36,4.11-7.32,3.24l-9.05-2Zm2.47,11.3-.9,4,3.31.73c1.89.42,2.64-.28,2.91-1.5s-.13-2.14-2-2.55Zm1.58-7.17-.9,4.06,3.31.73c1.89.41,2.64-.28,2.91-1.47s-.12-2.17-2-2.59Z"/><path class="cls-10" d="M475.91,565.17l5.25.51,5.4,18.44-5.25-.5L480.23,580l-7.78-.75-1.76,3.39-3.63-.35Zm-1.89,11,5.25.51-2-6.79Z"/><path class="cls-10" d="M493,566.42l8.05-.2c4.71-.12,7.72,2.25,7.83,6.5a6.07,6.07,0,0,1-3.16,5.86l3.7,5.26-5.63.15-3.07-4.36-2.55.06.12,4.43-4.84.13Zm5.09,10.09,1.63,0c2.86-.07,4.26-1.08,4.19-3.62s-1.51-3.48-4.36-3.41l-1.63,0Z"/><path class="cls-10" d="M514,565.59l1.54-.21v0l7.65-1.08c4-.56,6.51.06,7,3.8a5.38,5.38,0,0,1-1.46,4.45,5.28,5.28,0,0,1,2.63,3.84c.52,3.74-1.71,5-5.72,5.6l-9.18,1.29Zm5.23,2.45.58,4.12,3.36-.48c1.91-.27,2.38-1.18,2.2-2.39s-.87-2-2.78-1.72Zm1,7.27.58,4.11,3.35-.47c1.92-.27,2.38-1.19,2.21-2.42s-.87-2-2.79-1.69Z"/><path class="cls-10" d="M547.88,558.93l.79,3.09-8.54,2.18,1,4,6.77-1.73.79,3.09-6.77,1.73,1,4,8.55-2.18.79,3.08-13.24,3.39-4.42-17.28Z"/><path class="cls-10" d="M553,557.36l7.53-2.85c4.41-1.67,8-.43,9.55,3.56a6.09,6.09,0,0,1-1.05,6.58l5.23,3.74-5.27,2-4.34-3.1-2.38.9,1.57,4.15L559.32,574Zm8.14,7.85,1.53-.58c2.67-1,3.66-2.42,2.76-4.81s-2.58-2.78-5.25-1.77l-1.52.58Z"/><path class="cls-10" d="M597.38,556.89c-3.85,2.29-6.82,2.18-9.1.68l1.46-2.84a6.67,6.67,0,0,0,6.25-.44c2-1.19,2.41-2.44,2-3.14s-1-.77-2.5-.47l-5.34,1c-3.09.58-4.62-.47-5.72-2.33-1.37-2.3-.55-6,4-8.65,3.33-2,6.24-1.8,8.39-.53l-1.19,2.66c-1.9-.57-3.55-.86-5.53.31-1.77,1.05-2.16,2.49-1.81,3.08s.88.84,2.53.52l4.32-.84c3.16-.62,5.61-.27,6.83,1.79C603.56,550.46,602.49,553.87,597.38,556.89Z"/><path class="cls-10" d="M603.58,531.11l4.45,5.8,5.72-4.38-4.44-5.8,3.84-3L624,538l-3.84,2.94-4.46-5.83L610,539.44l4.46,5.83-3.84,2.94-10.84-14.16Z"/><path class="cls-10" d="M623.5,513.63c4-3.94,9.15-4,13.14,0s3.85,9.2-.14,13.14-9.19,4-13.18,0S619.49,517.58,623.5,513.63Zm10.74,10.92c1.85-1.83,1.51-4.71-1.14-7.4s-5.53-3.06-7.38-1.24-1.51,4.71,1.14,7.4S632.41,526.36,634.24,524.55Z"/><path class="cls-10" d="M647.76,514.47l-14-11.09,5-6.31c2.93-3.69,6.69-4.49,10-1.84s3.41,6.48.48,10.17l-2,2.52,3.47,2.75Zm-3-8.53,1-1.28c1.78-2.23,1.91-4-.09-5.54s-3.64-1.07-5.41,1.17l-1,1.28Z"/></g></g></svg>