<svg xmlns="http://www.w3.org/2000/svg" xmlns:xlink="http://www.w3.org/1999/xlink" viewBox="0 0 3304.74 300.05"><defs><style>.cls-1{fill:url(#Degradado_sin_nombre_11);}.cls-2{fill:url(#Degradado_sin_nombre_11-2);}.cls-3{fill:url(#Degradado_sin_nombre_11-4);}.cls-4{fill:#fff;}</style><linearGradient id="Degradado_sin_nombre_11" y1="150.03" x2="301.88" y2="150.03" gradientUnits="userSpaceOnUse"><stop offset="0" stop-color="#e6d774"/><stop offset="0.05" stop-color="#e3d06d"/><stop offset="0.19" stop-color="#dbbe5b"/><stop offset="0.29" stop-color="#d8b855"/><stop offset="0.38" stop-color="#d1b04f"/><stop offset="0.53" stop-color="#bf9b3d"/><stop offset="0.55" stop-color="#bc973a"/><stop offset="0.62" stop-color="#c09c3e"/><stop offset="0.7" stop-color="#cdaa4b"/><stop offset="0.89" stop-color="#e1bf5b"/><stop offset="1" stop-color="#c5a244"/></linearGradient><linearGradient id="Degradado_sin_nombre_11-2" x1="347.12" y1="-10.17" x2="546.18" y2="201.59" xlink:href="#Degradado_sin_nombre_11"/><linearGradient id="Degradado_sin_nombre_11-4" x1="426.23" y1="-84.54" x2="625.29" y2="127.22" xlink:href="#Degradado_sin_nombre_11"/></defs><g id="Capa_2" data-name="Capa 2"><g id="Layer_1" data-name="Layer 1"><path class="cls-1" d="M301.88,150.94A150.94,150.94,0,1,0,127.46,300.05V194.54H88.89v-43.6h38.57l0-33.26c0-37.82,22.41-58.81,56.88-58.81A213,213,0,0,1,218,62.05V99h-18.9c-18.75,0-24.74,11.74-24.74,23.67l0,28.32h41.92l-6.7,43.6H174.42V300.05A151,151,0,0,0,301.88,150.94Z"/><path class="cls-2" d="M497.7,32.05c38.43,0,43,.15,58.15.84,14,.64,21.65,3,26.73,5a44.63,44.63,0,0,1,16.54,10.76,44.56,44.56,0,0,1,10.77,16.55c2,5.07,4.31,12.69,5,26.72.69,15.17.84,19.72.84,58.15s-.15,43-.84,58.15c-.64,14-3,21.65-5,26.72a47.74,47.74,0,0,1-27.31,27.31c-5.08,2-12.7,4.31-26.73,5-15.17.7-19.72.84-58.15.84s-43-.14-58.14-.84c-14-.64-21.65-3-26.73-5a47.74,47.74,0,0,1-27.31-27.31c-2-5.07-4.31-12.69-4.95-26.72-.69-15.18-.84-19.73-.84-58.15s.15-43,.84-58.15c.64-14,3-21.65,4.95-26.72a44.56,44.56,0,0,1,10.77-16.55,44.63,44.63,0,0,1,16.54-10.76c5.08-2,12.7-4.32,26.73-5,15.17-.69,19.72-.84,58.14-.84m0-25.93c-39.08,0-44,.17-59.33.87s-25.77,3.13-34.93,6.69a73.56,73.56,0,0,0-42.08,42.08c-3.56,9.16-6,19.62-6.69,34.94S353.8,111,353.8,150s.17,44,.87,59.33,3.13,25.78,6.69,34.93a73.54,73.54,0,0,0,42.08,42.09c9.16,3.55,19.62,6,34.93,6.69s20.25.86,59.33.86,44-.16,59.34-.86,25.77-3.14,34.93-6.69a73.54,73.54,0,0,0,42.08-42.09c3.56-9.15,6-19.61,6.69-34.93s.87-20.25.87-59.33-.17-44-.87-59.33-3.13-25.78-6.69-34.94A73.56,73.56,0,0,0,592,13.68c-9.16-3.56-19.62-6-34.93-6.69s-20.25-.87-59.34-.87Z"/><path class="cls-2" d="M497.7,76.13A73.9,73.9,0,1,0,571.6,150,73.9,73.9,0,0,0,497.7,76.13Zm0,121.87a48,48,0,1,1,48-48A48,48,0,0,1,497.7,198Z"/><circle class="cls-3" cx="574.52" cy="73.21" r="17.27"/><path class="cls-4" d="M910.38,64.71a64.36,64.36,0,0,1,27.1,25q9.49,16.1,9.5,37.1a83.65,83.65,0,0,1-5.9,31.6,53.84,53.84,0,0,1-17.4,23.3q-11.5,8.7-27.3,8.7-10.61,0-17.5-4.2a20.74,20.74,0,0,1-9.3-11.8,38.05,38.05,0,0,1-14.4,12.1,43.25,43.25,0,0,1-19.2,4.3q-14.81,0-23.3-8.9t-8.5-24.3a64.39,64.39,0,0,1,6-27.5,52.72,52.72,0,0,1,16.6-20.7,39.16,39.16,0,0,1,23.8-7.8q16.8,0,22.8,12l1.8-10.6h27.6l-8.8,50.2a39.38,39.38,0,0,0-.6,6.4q0,8.79,7.8,8.8,9.6,0,14.7-12.3t5.1-28.3q0-23-14.5-36t-40.7-13a78.56,78.56,0,0,0-40.7,10.8,77.17,77.17,0,0,0-28.7,29.5,83.06,83.06,0,0,0-10.4,41.1q0,24.19,14.1,37.6t39.5,13.4q19.8,0,35.4-7.2l5.4,21.8q-19.61,8.59-44,8.6-22.8,0-40.1-8.8a63.22,63.22,0,0,1-26.7-25q-9.41-16.2-9.4-37.8,0-30.21,14.2-54.7a101.53,101.53,0,0,1,39.1-38.4q24.9-13.9,55.7-13.9Q892.78,55.81,910.38,64.71Zm-52.7,98.1a24.33,24.33,0,0,0,7.8-9.1,26.78,26.78,0,0,0,2.9-12.3,16.13,16.13,0,0,0-3.8-11.1q-3.81-4.31-10.4-4.3-8.8,0-14.6,7.6a28.77,28.77,0,0,0-5.8,18q0,6.6,3.4,10.6t10,4A18.14,18.14,0,0,0,857.68,162.81Z"/><path class="cls-4" d="M973.67,103.21a48.38,48.38,0,0,1,17.7-20,46.19,46.19,0,0,1,25-7,43.89,43.89,0,0,1,20.1,4.6,36.57,36.57,0,0,1,14.3,12.4V41.41H1085v148h-34.2v-16a34.89,34.89,0,0,1-13.7,12.8,42.93,42.93,0,0,1-20.7,4.8,45.76,45.76,0,0,1-25-7.1,49.08,49.08,0,0,1-17.7-20.2q-6.49-13.11-6.5-30.3T973.67,103.21Zm70,10.2a24,24,0,0,0-34.6-.1q-7.1,7.29-7.1,20.1t7.1,20.3a23.81,23.81,0,0,0,34.6.1q7.1-7.41,7.1-20.2T1043.67,113.41Z"/><path class="cls-4" d="M1214.37,141.81H1137q.79,10.4,6.7,15.9a20.48,20.48,0,0,0,14.5,5.5q12.8,0,17.8-10.8h36.4a50,50,0,0,1-10.1,19.8A50.77,50.77,0,0,1,1184,186a58.84,58.84,0,0,1-24.6,5q-16.41,0-29.2-7a49.87,49.87,0,0,1-20-20q-7.2-13-7.2-30.4t7.1-30.4a49,49,0,0,1,19.9-20q12.79-7,29.4-7,16.2,0,28.8,6.8a48.78,48.78,0,0,1,19.7,19.4q7.1,12.6,7.1,29.4A87.35,87.35,0,0,1,1214.37,141.81Zm-34.4-19q0-8.81-6-14t-15-5.2a21.66,21.66,0,0,0-14.5,5q-5.9,5-7.3,14.2Z"/><path class="cls-4" d="M1267.17,41.41v148H1233v-148Z"/><path class="cls-4" d="M1291.67,103.21a48.38,48.38,0,0,1,17.7-20,46.16,46.16,0,0,1,25-7,43,43,0,0,1,20.7,4.8,35.38,35.38,0,0,1,13.7,12.6V77.81H1403v111.6h-34.2v-15.8a37,37,0,0,1-13.9,12.6,43,43,0,0,1-20.7,4.8,45.38,45.38,0,0,1-24.8-7.1,49.08,49.08,0,0,1-17.7-20.2q-6.51-13.11-6.5-30.3T1291.67,103.21Zm70,10.2a24,24,0,0,0-34.6-.1q-7.11,7.29-7.1,20.1t7.1,20.3a23.81,23.81,0,0,0,34.6.1q7.1-7.41,7.1-20.2T1361.67,113.41Z"/><path class="cls-4" d="M1490.87,81a35.38,35.38,0,0,1,13.7,12.6V77.81h34.2v111.4a62.9,62.9,0,0,1-6.1,27.9,46.58,46.58,0,0,1-18.6,19.9q-12.51,7.4-31.1,7.4-24.81,0-40.2-11.7t-17.6-31.7H1459a16.18,16.18,0,0,0,7.6,10.1q6,3.69,14.8,3.7,10.59,0,16.9-6.1t6.3-19.5v-15.8a38.07,38.07,0,0,1-13.8,12.7,41.76,41.76,0,0,1-20.6,4.9,45.74,45.74,0,0,1-25-7.1,49.08,49.08,0,0,1-17.7-20.2q-6.51-13.11-6.5-30.3t6.5-30.2a48.38,48.38,0,0,1,17.7-20,46.16,46.16,0,0,1,25-7A43,43,0,0,1,1490.87,81Zm6.6,32.4a24,24,0,0,0-34.6-.1q-7.11,7.29-7.1,20.1t7.1,20.3a23.81,23.81,0,0,0,34.6.1q7.1-7.41,7.1-20.2T1497.47,113.41Z"/><path class="cls-4" d="M1663,89.31q11.6,12.7,11.6,34.9v65.2h-34v-60.6q0-11.2-5.8-17.4t-15.6-6.2q-9.79,0-15.6,6.2t-5.8,17.4v60.6h-34.2v-148h34.2v51.4A36.49,36.49,0,0,1,1612,81a45.28,45.28,0,0,1,20.2-4.4Q1651.36,76.61,1663,89.31Z"/><path class="cls-4" d="M1803,141.81h-77.4q.8,10.4,6.7,15.9a20.5,20.5,0,0,0,14.5,5.5q12.79,0,17.8-10.8H1801a50,50,0,0,1-10.1,19.8,50.77,50.77,0,0,1-18.3,13.8,58.81,58.81,0,0,1-24.6,5q-16.39,0-29.2-7a49.87,49.87,0,0,1-20-20q-7.2-13-7.2-30.4t7.1-30.4a49.08,49.08,0,0,1,19.9-20q12.8-7,29.4-7,16.2,0,28.8,6.8a48.78,48.78,0,0,1,19.7,19.4q7.1,12.6,7.1,29.4A87.35,87.35,0,0,1,1803,141.81Zm-34.4-19q0-8.81-6-14t-15-5.2a21.68,21.68,0,0,0-14.5,5q-5.89,5-7.3,14.2Z"/><path class="cls-4" d="M1883.76,160.41v29h-17.4q-18.6,0-29-9.1t-10.4-29.7v-44.4h-13.6V77.81H1827V50.61h34.2v27.2h22.4v28.4h-22.4V151q0,5,2.4,7.2c1.6,1.46,4.27,2.2,8,2.2Z"/><path class="cls-4" d="M1965,160.41v29h-17.4q-18.6,0-29-9.1t-10.4-29.7v-44.4h-13.6V77.81h13.6V50.61h34.2v27.2h22.4v28.4h-22.4V151q0,5,2.4,7.2c1.6,1.46,4.26,2.2,8,2.2Z"/><path class="cls-4" d="M2005.26,184a51.28,51.28,0,0,1-20.6-20q-7.5-13-7.5-30.4,0-17.21,7.6-30.3a51.44,51.44,0,0,1,20.8-20.1,66.08,66.08,0,0,1,59.2,0,51.5,51.5,0,0,1,20.8,20.1q7.59,13.1,7.6,30.3t-7.7,30.3a52.2,52.2,0,0,1-21,20.1,62.88,62.88,0,0,1-29.7,7A61.65,61.65,0,0,1,2005.26,184Zm46.2-29.8q6.9-7.2,6.9-20.6t-6.7-20.6a22.73,22.73,0,0,0-33.1-.1q-6.6,7.09-6.6,20.7,0,13.39,6.5,20.6a21,21,0,0,0,16.3,7.2A22.29,22.29,0,0,0,2051.46,154.21Z"/><path class="cls-4" d="M2159.36,81a43.08,43.08,0,0,1,20.6-4.8,46.19,46.19,0,0,1,25,7,48.51,48.51,0,0,1,17.7,20q6.49,13,6.5,30.2t-6.5,30.3a49.22,49.22,0,0,1-17.7,20.2,45.76,45.76,0,0,1-25,7.1,43.11,43.11,0,0,1-20.6-4.7,36.45,36.45,0,0,1-13.81-12.5v15.6h-34.19v-148h34.19v52.2A35.29,35.29,0,0,1,2159.36,81Zm27.9,32.3a23.45,23.45,0,0,0-17.5-7.3,23,23,0,0,0-17.3,7.4q-7.11,7.4-7.1,20.2t7.1,20.2a23.93,23.93,0,0,0,34.7-.1q7.2-7.5,7.2-20.3T2187.26,113.31Z"/><path class="cls-4" d="M2246.85,103.21a48.38,48.38,0,0,1,17.7-20,46.19,46.19,0,0,1,25-7,42.93,42.93,0,0,1,20.7,4.8,35.38,35.38,0,0,1,13.7,12.6V77.81h34.2v111.6H2324v-15.8a36.93,36.93,0,0,1-13.9,12.6,42.93,42.93,0,0,1-20.7,4.8,45.41,45.41,0,0,1-24.8-7.1,49.08,49.08,0,0,1-17.7-20.2q-6.49-13.11-6.5-30.3T2246.85,103.21Zm70,10.2a24,24,0,0,0-34.6-.1q-7.1,7.29-7.1,20.1t7.1,20.3a23.81,23.81,0,0,0,34.6.1q7.09-7.41,7.1-20.2T2316.85,113.41Z"/><path class="cls-4" d="M2432.15,81.91a38.6,38.6,0,0,1,20-5.3v36.2h-9.4q-12.8,0-19.2,5.5t-6.4,19.3v51.8H2383V77.81h34.2v18.6A45.12,45.12,0,0,1,2432.15,81.91Z"/><path class="cls-4" d="M2516.55,81a43.08,43.08,0,0,1,20.6-4.8,46.19,46.19,0,0,1,25,7,48.51,48.51,0,0,1,17.7,20q6.49,13,6.5,30.2t-6.5,30.3a49.22,49.22,0,0,1-17.7,20.2,45.76,45.76,0,0,1-25,7.1,43.11,43.11,0,0,1-20.6-4.7,36.35,36.35,0,0,1-13.8-12.5v15.6h-34.2v-148h34.2v52.2A35.2,35.2,0,0,1,2516.55,81Zm27.9,32.3A23.45,23.45,0,0,0,2527,106a23,23,0,0,0-17.3,7.4q-7.11,7.4-7.1,20.2t7.1,20.2a23.93,23.93,0,0,0,34.7-.1q7.2-7.5,7.2-20.3T2544.45,113.31Z"/><path class="cls-4" d="M2708.94,141.81h-77.4q.81,10.4,6.7,15.9a20.52,20.52,0,0,0,14.5,5.5q12.81,0,17.8-10.8h36.4a50,50,0,0,1-10.09,19.8,50.72,50.72,0,0,1-18.31,13.8,58.81,58.81,0,0,1-24.6,5q-16.39,0-29.2-7a49.87,49.87,0,0,1-20-20q-7.2-13-7.2-30.4t7.1-30.4a49.14,49.14,0,0,1,19.9-20q12.81-7,29.4-7,16.2,0,28.8,6.8a48.78,48.78,0,0,1,19.7,19.4q7.11,12.6,7.1,29.4A85.14,85.14,0,0,1,2708.94,141.81Zm-34.4-19q0-8.81-6-14t-15-5.2a21.7,21.7,0,0,0-14.5,5q-5.89,5-7.3,14.2Z"/><path class="cls-4" d="M2776.74,81.91a38.62,38.62,0,0,1,20-5.3v36.2h-9.4q-12.8,0-19.2,5.5t-6.4,19.3v51.8h-34.2V77.81h34.2v18.6A45.12,45.12,0,0,1,2776.74,81.91Z"/><path class="cls-4" d="M2832.54,186a44.46,44.46,0,0,1-18-13.7,36,36,0,0,1-7.4-19.5h33.8a13,13,0,0,0,5.4,9.4,19.1,19.1,0,0,0,11.8,3.6q6.41,0,9.9-2.5a7.68,7.68,0,0,0,3.5-6.5q0-4.8-5-7.1t-16.2-5.1a151.94,151.94,0,0,1-20-5.9,34.7,34.7,0,0,1-13.8-9.8q-5.8-6.7-5.8-18.1a30.74,30.74,0,0,1,5.3-17.5q5.3-7.91,15.6-12.5t24.5-4.6q21,0,33.1,10.4t13.9,27.6h-31.6a13.59,13.59,0,0,0-5.1-9.2q-4.3-3.41-11.3-3.4c-4,0-7.07.76-9.2,2.3a7.34,7.34,0,0,0-3.2,6.3q0,4.8,5.1,7.2t15.9,4.8a172.45,172.45,0,0,1,20.2,6.3,34.76,34.76,0,0,1,13.7,10q5.9,6.9,6.1,18.5a29.36,29.36,0,0,1-5.5,17.5q-5.5,7.69-15.8,12.1t-23.9,4.4A64.21,64.21,0,0,1,2832.54,186Z"/><path class="cls-4" d="M3024.14,89.31q11.59,12.7,11.6,34.9v65.2h-34v-60.6q0-11.2-5.8-17.4t-15.6-6.2q-9.8,0-15.6,6.2t-5.8,17.4v60.6h-34.2v-148h34.2v51.4a36.49,36.49,0,0,1,14.2-11.8,45.28,45.28,0,0,1,20.2-4.4Q3012.54,76.61,3024.14,89.31Z"/><path class="cls-4" d="M3080.84,184a51.34,51.34,0,0,1-20.6-20q-7.5-13-7.5-30.4,0-17.21,7.6-30.3a51.5,51.5,0,0,1,20.8-20.1,66.08,66.08,0,0,1,59.2,0,51.5,51.5,0,0,1,20.8,20.1q7.61,13.1,7.6,30.3t-7.7,30.3a52.07,52.07,0,0,1-21,20.1,62.88,62.88,0,0,1-29.7,7A61.68,61.68,0,0,1,3080.84,184Zm46.2-29.8q6.9-7.2,6.9-20.6t-6.7-20.6a22.73,22.73,0,0,0-33.1-.1q-6.6,7.09-6.6,20.7,0,13.39,6.5,20.6a21,21,0,0,0,16.3,7.2A22.29,22.29,0,0,0,3127,154.21Z"/><path class="cls-4" d="M3234.94,81a42.34,42.34,0,0,1,20.6-4.8,46.19,46.19,0,0,1,25,7,48.45,48.45,0,0,1,17.7,20q6.5,13,6.5,30.2t-6.5,30.3a49.15,49.15,0,0,1-17.7,20.2,45.76,45.76,0,0,1-25,7.1,42.49,42.49,0,0,1-20.5-4.8,37.56,37.56,0,0,1-13.9-12.4v68.8h-34.2V77.81h34.2v15.8A37.08,37.08,0,0,1,3234.94,81Zm27.9,32.3a23.45,23.45,0,0,0-17.5-7.3,23,23,0,0,0-17.3,7.4q-7.11,7.4-7.1,20.2t7.1,20.2a23.93,23.93,0,0,0,34.7-.1q7.2-7.5,7.2-20.3T3262.84,113.31Z"/></g></g></svg>